<svg id="Layer_1" data-name="Layer 1" xmlns="http://www.w3.org/2000/svg" viewBox="0 0 770.39 966.25"><defs><style>.cls-1{fill:#dce8ff;}.cls-2{fill:#f8faff;}.cls-3{fill:#fff;}.cls-4{fill:#131a49;}.cls-5{opacity:0.35;}.cls-14,.cls-5{isolation:isolate;}.cls-6{fill:#1c2260;}.cls-7{fill:#fff4d4;}.cls-8{fill:#ffc23f;}.cls-9{fill:#191919;}.cls-10{fill:#feda8c;}.cls-11{fill:#2d3d8e;}.cls-12{fill:none;}.cls-13{fill:#d6d6d6;}.cls-15{opacity:0.35;}.cls-16{fill:#ffe9bd;}</style></defs><title>Bearie</title><path class="cls-1" d="M174.93,965.45c-30.65-.24-93-7.15-120.44-15.5C25,941-3.58,924.07,16.33,890.32c21.11-35.89,82.16-41.62,114.36-47.1,24.45-4.17,68.57-3.1,91.22-3.58,124.61-2.38,185.43,15.62,308.37,2.86,41.62-4.29,70.59,13.83,81.56,32.91,10.61,18.6.6,72.74-65.47,79.3-138.92,13.71-245.65,11.92-371.45,10.73"/><path class="cls-1" d="M501.18,962.35c39.11-3.1,88.6-2.15,110.18-41.86,5.84-10.73,8.94-23.49,7-35.65-1.91-13.24-11.81-23.61-22.42-31-18.72-13-42.45-16.93-64.75-14.91-27.43,2.5-54.61,4.53-82.16,4.65-47.22.36-94.32-3.94-141.43-6.08q-40.6-2-81.21-1.43c-22.18.36-44.48,0-66.66,1a283.54,283.54,0,0,0-30.17,2.74c-4.41.72-2.5,7.63,2,6.92,20.75-3.46,42.21-3.1,63.2-3.22,23.49-.12,46.86-.6,70.36-.24,45.43.72,90.63,4.77,136.06,6.56,22.78,1,45.43,1.19,68.21.48,12.76-.36,25.64-1.07,38.4-2.15,13.59-1.07,27.31-3.34,40.9-2.5,19.91,1.19,40.54,8.35,54.26,23.61,7.51,8.47,10,17.89,8.47,29a56.88,56.88,0,0,1-18.13,33.87c-14.91,13.83-34.58,17.89-54.14,19.79q-80.31,7.69-161.1,9.78"/><path class="cls-1" d="M159.07,961.4c-20.87-1.19-41.86-3.34-62.48-6.44-17.77-2.62-35.89-5.72-52.71-12.4-17.05-6.8-35.77-19.44-29.22-40.31,11.81-37.56,61.41-46.39,94.68-51.87,7.51-1.31,14.91-2.5,22.3-3.7,4.53-.83,2.62-7.75-1.91-6.92-35.42,6-76.56,9.3-104.58,34.22C11.92,885.79.71,905.95,8.7,923.59c7.87,17.17,29,25.16,45.67,30.17,18.48,5.49,38,8,57.24,10.37"/><path class="cls-2" d="M140.82,960.92c-29.45-.83-65.59-6.2-89.43-14.55-27.78-9.78-63.32-26.23-44.12-57.83,20.51-33.63,67.25-41,98.38-44.72,20.27-2.38,59.86-6.68,81.68-7.15,120.08-2.38,202.36,28.26,320.77,16.1,40.07-4.05,102.55,6,104.94,41.74,2.5,37-42.93,54.14-90,57.24-128.79,8.35-262.94,12.52-382.18,9.18"/><path class="cls-3" d="M82,643.37c13.24,18.13,40.54,33.87,59.86,39.23,35.89,10.14,84.78,7.15,78.46-7"/><path class="cls-4" d="M245.16,587s6.08,27.19,4.41,37c-2.86,17.29-21.82,47.34-15.26,101.6,7,57.24,10.26,68.57,23,96.47,7.75,17.05,20.51,36,31,40.19,12.16,4.89,35.42,1.67,45.79-4.41,22.06-12.76,19.79-51,14.19-63.44-6.92-15.26-12.76-23.73-18.13-37.09S313.49,720,318,706.81c6.92-20.75,3.58-18.48,5.25-40.19C324.22,655.77,271.52,576.23,245.16,587Z"/><g class="cls-5"><path class="cls-4" d="M318.38,492.88c3.34-10.61-16.22-12.64-55.09-20.39-39.23-7.87-59.86-13.47-84.07-19.68A404.43,404.43,0,0,0,138,445.3c-7.75-1.07-22.66-5.84-30.88,4.89-6.08,7.87,8.35,21.82,16.22,25.64,17.05,8.35,48.77,21.11,48.77,21.11l106.13,40.66C287.85,532.94,315.4,502.42,318.38,492.88Z"/><path class="cls-3" d="M278.19,538.31l-.24-.12L171.83,497.53c-.36-.12-32-12.88-48.77-21.23-6.2-3-16-11.92-17.65-19.44a8.29,8.29,0,0,1,1.31-7.15c7.27-9.54,19.56-7.27,27.67-5.84,1.31.24,2.62.48,3.82.6A404.44,404.44,0,0,1,179.46,452c3.1.83,6.2,1.55,9.3,2.38,20.87,5.37,40.54,10.37,74.77,17.29,5.25,1.07,10.26,2,14.79,2.86,23,4.41,36.85,7.15,40.31,12.88a6.61,6.61,0,0,1,.48,5.49h0c-3,9.54-30.65,40.42-40.54,45.19ZM122.94,443.87c-5.6,0-11.33,1.43-15.38,6.68a6.89,6.89,0,0,0-1.07,6.2c1.67,7.15,11.09,15.74,17.05,18.6,16.81,8.23,48.41,21,48.65,21.11L278.07,537c9.9-5.13,36.73-35.06,39.71-44.36h0a5,5,0,0,0-.36-4.53c-3.1-5.25-16.81-7.87-39.47-12.28-4.53-.83-9.54-1.79-14.79-2.86-34.22-6.8-53.9-11.92-74.77-17.29-3.1-.83-6.2-1.55-9.3-2.38A371.73,371.73,0,0,0,138,445.89c-1.19-.12-2.5-.36-3.82-.6A54.29,54.29,0,0,0,122.94,443.87Z"/></g><path class="cls-4" d="M319.81,504.09c5-9.9-14-15-51.16-29C231.21,461,212,452.93,188.52,444.58c-14.79-5.25-27.67-10.85-39.71-15.5-9.78-3.82-25.64-7.15-30.88-1-7.27,8.82,4.05,22.18,10.49,28.14,15,14,38.75,27.31,38.75,27.31L272.83,542C283.32,538.79,315.28,513,319.81,504.09Z"/><path class="cls-3" d="M272.83,542.6l-.24-.12L166.94,484.05c-.24-.12-24-13.47-38.87-27.43-18-16.81-12.64-26.35-10.49-28.86,5.6-6.8,22.54-2.74,31.48.72,4.41,1.67,8.82,3.46,13.59,5.37,8.23,3.34,16.69,6.8,26.11,10.14,12.4,4.53,23.85,8.94,37.09,14.07,11.92,4.65,25.4,9.9,43,16.46,5.13,1.91,9.78,3.7,14.19,5.25,21.94,8.11,35.3,13,37.68,19.08a6.05,6.05,0,0,1-.48,5.49h0c-4.53,8.94-36.73,34.94-47.22,38.16ZM128.54,425.26c-4.41,0-8.11,1-10,3.22-7.75,9.42,7.27,24.33,10.37,27.31,14.79,13.83,38.4,27.07,38.64,27.19l105.41,58.31c10.61-3.46,41.86-28.86,46.27-37.44h0a5.14,5.14,0,0,0,.36-4.53c-2.27-5.72-15.26-10.49-37-18.48-4.41-1.55-9.18-3.34-14.19-5.25-17.65-6.56-31.12-11.92-43-16.46-13.24-5.13-24.56-9.54-37.09-14.07-9.42-3.34-17.89-6.8-26.11-10.14-4.77-1.91-9.18-3.7-13.59-5.37C142.13,427.05,134.62,425.26,128.54,425.26Z"/><path class="cls-6" d="M109,417.51a33.7,33.7,0,0,0-19.2,30.65,1.79,1.79,0,1,0,3.58,0,30.25,30.25,0,0,1,17.41-27.55c2-1,.24-4.05-1.79-3.1Z"/><path class="cls-6" d="M98,416.08a27.1,27.1,0,0,0-15.26,24.56,1.79,1.79,0,1,0,3.58,0A23.36,23.36,0,0,1,99.8,419.18c2.15-1.07.24-4.17-1.79-3.1Z"/><polyline class="cls-7" points="200.45 763.33 177.91 652.07 181.37 651 203.9 762.25"/><polygon class="cls-7" points="194.6 764.52 170.99 647.78 186.02 643.49 209.75 761.06 206.17 761.78 206.29 762.13 194.6 764.52"/><polyline class="cls-7" points="195.32 769.29 119.36 700.72 121.5 697.26 197.46 765.71"/><polygon class="cls-7" points="191.26 773.7 111.73 701.92 120.07 687.96 201.4 761.3 198.66 764.28 199.25 764.76 191.26 773.7"/><polyline class="cls-7" points="194.48 777.88 100.76 784.2 100.52 779.78 194.25 773.46"/><polygon class="cls-7" points="95.15 790.63 94.2 774.3 193.89 767.5 194.72 779.43 194.6 779.43 194.84 783.84 95.15 790.63"/><polyline class="cls-7" points="198.54 785.15 130.81 863.38 128.18 860.15 196.03 781.93"/><polygon class="cls-7" points="130.45 872.79 120.55 859.92 191.5 778 200.45 785.87 199.97 786.46 202.95 789.09 130.45 872.79"/><polyline class="cls-7" points="205.34 787.65 195.32 901.18 191.74 900.58 201.76 787.18"/><polygon class="cls-7" points="200.68 907.97 185.3 905.71 195.79 786.58 207.72 787.65 207.72 787.89 211.3 788.25 200.68 907.97"/><polyline class="cls-7" points="211.89 784.2 264.36 879.83 261.26 882.34 208.91 786.7"/><polygon class="cls-7" points="259.47 891.4 203.66 789.56 207 787.65 206.65 787.18 217.14 781.33 271.99 881.38 259.47 891.4"/><polyline class="cls-7" points="215.11 776.45 305.38 809.48 304.31 813.77 214.04 780.74"/><polygon class="cls-7" points="308.6 821.64 212.01 786.34 213.44 782.29 212.97 782.05 217.14 770.84 312.42 805.78 308.6 821.64"/><polyline class="cls-7" points="213.32 767.98 299.3 723.02 300.73 727.08 214.87 772.03"/><polygon class="cls-7" points="217.62 777.4 212.01 766.79 212.61 766.55 210.58 762.73 302.52 714.56 308.13 729.94 217.62 777.4"/><polyline class="cls-7" points="207.6 762.85 248.98 660.78 252.2 662.8 210.82 764.76"/><polygon class="cls-7" points="216.31 767.02 205.34 762.61 205.57 762.02 202 760.59 246 652.07 259.59 660.3 216.31 767.02"/><path class="cls-8" d="M205.45,652.67c27.43.24,52.23,13.83,70,35.89s28.74,52.35,28.62,85.74-11.57,63.56-29.69,85.38-43.17,35.18-70.59,34.94l-.12,11.81c30.17.24,57.48-14.55,77.39-38.4s32.32-57,32.55-93.61-11.81-69.88-31.36-94.09S235.5,641.1,205.33,641ZM203.9,894.5c-27.43-.24-52.23-13.83-70-35.89s-28.74-52.35-28.62-85.74,11.57-63.56,29.69-85.38,43-35.18,70.47-34.94l.12-11.81c-30.17-.24-57.48,14.55-77.39,38.4s-32.32,57-32.55,93.61,11.81,69.88,31.36,94.09,46.74,39.23,76.91,39.35Z"/><path class="cls-8" d="M207.36,909.88h-7v-.12c-28.86-1.19-55.81-15.5-76.08-40.54-21-25.88-32.43-60.1-32.2-96.35s12-70.36,33.39-96c20.63-24.8,47.7-38.75,76.68-39.59h7.15v.12c28.86,1.19,55.81,15.5,76.08,40.54,21,25.88,32.43,60.1,32.2,96.35s-12,70.36-33.39,96c-20.87,24.68-47.94,38.64-76.79,39.59Zm.12-11.81v4.65c26.71-1,51.87-14,71.07-37.09,20.27-24.33,31.48-56.76,31.72-91.34S299.66,707,279.74,682.48c-19-23.37-43.88-36.73-70.59-37.92v4.65c26.35,1.19,50.8,14.31,69.28,37.09,19.08,23.61,29.57,54.85,29.45,88s-11,64.15-30.53,87.65C258.4,884.48,233.83,897.12,207.48,898.08Zm-5.6-253.64c-26.71,1-51.87,14-71.07,37.09C110.53,705.85,99.32,738.29,99.09,773s10.61,67.25,30.53,91.82c19,23.37,43.88,36.73,70.59,37.92v-4.65C174,896.88,149.41,883.77,131,861c-19.08-23.61-29.57-54.85-29.45-88s11-64.15,30.53-87.65c18.72-22.54,43.41-35.3,69.64-36.25Zm2.27,246.48h.48c25.28,0,49.13-11.92,67.14-33.63,18.48-22.18,28.62-51.63,28.86-83.11s-9.78-61.17-27.78-83.47c-17.89-22.06-41.86-34.34-67.25-34.58h-2c-24.8.48-48.06,12.28-65.82,33.63-18.48,22.18-28.62,51.63-28.86,83.11s9.78,61.17,27.78,83.47c17.89,22.06,41.74,34.34,67,34.58h.48Z"/><polyline class="cls-7" points="429.52 838.93 429.88 801.01 433.45 801.01 433.21 838.93"/><polyline class="cls-7" points="423.32 843.22 403.52 814.13 406.38 811.26 426.18 840.36"/><polyline class="cls-7" points="424.39 850.85 394.1 842.75 394.94 838.45 425.34 846.44"/><polyline class="cls-7" points="426.06 862.42 405.79 891.28 403.05 888.54 422.84 857.77 391.95 868.62 390.17 864.81 421.05 853.96"/><polyline class="cls-7" points="433.1 863.97 432.86 901.89 429.16 901.89 429.4 863.97"/><polyline class="cls-7" points="439.3 859.68 459.09 888.77 456.35 891.64 436.43 862.54"/><polyline class="cls-7" points="441.8 851.57 472.33 858.25 471.73 862.66 441.08 855.86"/><polyline class="cls-7" points="436.55 840.48 456.82 811.62 459.57 814.48 439.42 843.34 470.18 833.21 471.97 837.14 441.2 847.16"/><path class="cls-8" d="M431.54,807c10.14,0,19.2,5.13,25.76,13.24a51.71,51.71,0,0,1-.36,63c-6.68,8-15.86,12.88-26,12.88l-.12,11.81c12.76.12,24.45-6.2,32.79-16.34s13.71-24.21,13.83-39.71-5-29.69-13.36-39.95-19.79-16.58-32.67-16.69Zm-.48,89c-10.14,0-19.2-5.13-25.76-13.24a51.71,51.71,0,0,1,.36-63c6.68-8,15.86-12.88,26-12.88l.12-11.81c-12.76-.12-24.45,6.2-32.79,16.34s-13.71,24.21-13.83,39.71,5,29.69,13.36,39.95,19.79,16.58,32.67,16.69Z"/><path class="cls-8" d="M431.19,911.31h-3.82v-.24c-12-1.07-23.25-7.39-31.84-17.89-9.18-11.33-14.19-26.35-14.07-42.21s5.25-30.77,14.67-42c8.7-10.37,19.91-16.46,32.08-17.41v-.12h7.15v.24c12,1.07,23.25,7.39,31.84,17.89,9.18,11.33,14.19,26.35,14.07,42.21s-5.25,30.77-14.67,42c-8.7,10.37-19.91,16.46-32.08,17.41v.12h-3.34Zm3.46-11.92V904c9.9-1,19.2-6.08,26.47-14.79,8.23-9.9,12.88-23.25,13-37.44s-4.41-27.55-12.52-37.68c-7.15-8.82-16.34-14.07-26.23-15.14v4.65c9.54,1.07,18.24,6.08,24.92,14.31a55.12,55.12,0,0,1-.36,67.37C452.89,893.54,444.07,898.43,434.64,899.39Zm-6.56-100.52c-9.9,1-19.2,6.08-26.47,14.79-8.23,9.9-12.88,23.25-13,37.44s4.41,27.55,12.52,37.68c7.15,8.82,16.34,14.07,26.23,15.14v-4.65c-9.54-1.07-18.24-6.08-24.92-14.31a55.29,55.29,0,0,1,.36-67.37c6.92-8.23,15.74-13.12,25.16-14.07Zm2,11.69c-8.11.36-15.86,4.41-21.7,11.57a48,48,0,0,0-.24,58.55c6.08,7.51,14.31,11.69,22.9,11.81h1.43c8.11-.36,15.86-4.41,21.7-11.57a48,48,0,0,0,.24-58.55c-6.08-7.51-14.31-11.69-22.9-11.81Z"/><path class="cls-9" d="M179.94,636.93c-1.91.48-4.17-1.67-3.82-4.17.24-1.91,3.34-3.46,6.08-4.29,36.61-11.21,81.56,12.52,98.38,24.33,51.75,36.13,99.57,98.74,114.71,154.19,6.08,22.18,10.85,39.47,16.69,45.67,3,3.22,6.8,2.5,12.16-3.46a3.17,3.17,0,0,1,4.41-.36c.12.12.24.12.24.24a3.83,3.83,0,0,1,0,5.13c-8.7,9.66-15.5,10-21.46,3.58-7-7.51-12-25.64-18.36-48.89-14.79-54-68-118.41-112.09-148.34C251.36,643.37,218.45,626.31,179.94,636.93Z"/><path class="cls-9" d="M379.55,828.56c-2.62-1.31-.36-8.59,3.22-15l1-1.67h0a62.72,62.72,0,0,1,20.87-22.42,48.46,48.46,0,0,1,49.73-2.15c7.27,3.82,13.59,10,19.08,17.05,3,4.05,5.72,8.23,8.35,12.64,0,0,4.05,7.75-1.31,8.11-1.91.12-3.7-5.84-11.81-16.69a49.48,49.48,0,0,0-16.69-14.31,43.47,43.47,0,0,0-44.6,1.91,58.3,58.3,0,0,0-18.72,20.15h0a11.92,11.92,0,0,1-1,1.67C385.4,820.33,383.61,830.58,379.55,828.56Z"/><path class="cls-9" d="M207.12,773.58h0c2.62,0,4.65-2.86,4.65-6.32l-1.31-199.14c0-3.46-2.15-6.2-4.77-6.2h0c-2.62,0-4.65,2.86-4.65,6.32l1.31,199.14C202.47,770.84,204.62,773.58,207.12,773.58Z"/><path class="cls-8" d="M207.48,803c13.12.12,24-12.88,24-28.86S221,745.08,207.84,745s-24,12.88-24,28.86S194.36,803,207.48,803Z"/><path class="cls-8" d="M207.6,806.61h-.12c-15.14-.12-27.31-14.79-27.19-32.79a35.55,35.55,0,0,1,8-22.78c5.25-6.2,12.16-9.66,19.56-9.66H208c15.14.12,27.31,14.79,27.19,32.79a35.55,35.55,0,0,1-8,22.78C221.91,803.16,215,806.61,207.6,806.61Zm.12-58c-5.25,0-10.14,2.5-14.07,7.15s-6.2,11.33-6.32,18.13c-.12,14.07,8.94,25.52,20,25.52h0c5.25.12,10.26-2.5,14.07-7.15,4.05-4.77,6.2-11.33,6.32-18.13.24-14-8.7-25.52-20-25.52Z"/><path class="cls-10" d="M431.19,865.4c6.32,0,11.45-6.2,11.57-13.83s-5-14-11.33-14-11.45,6.2-11.57,13.83S425,865.28,431.19,865.4Z"/><path class="cls-6" d="M384.32,384.48c41.38,37.32,83.11,71.07,118.77,107.44,55.69,56.88,61.65,103.51,49.73,159.31C542.68,698.82,515,748.66,406.5,780.38c0,0-24,3.34-27.55,16.34-9.06,33-17.65,39.35-42.69,42.33-19.08,2.27-39.95,2.62-50.92-12.88-12-17.05-18-33.63-20.15-47.46-3.1-20.87-4.29-43.88,1.91-70.47,5-21.46,6.08-23.13,8.35-41.38,2.5-20.27-2.27-25.88-8.47-30.41-9.06-6.68-19.2-1.55-19.2-1.55,12-26.59-18.6-86.1-33.87-122.7-3.58-8.7-17.05-52.47-19.68-61.05-17.53-59.5-23-105.53-2.27-153.95,1.79-4.29,3.34-10,7.75-16.1,3.82-5.25,8.59-10.49,15.5-8.59,4.41,1.19,8.94,7.75,10.14,18.13,0,0,37.2-9.3,73.34,8.35,0,0,2.86-9.66,8.35-13.71,9.06-6.68,18.36-1.91,22.3,6.56,3.82,8.11-2.62,20.75-2.62,20.75C347.24,346,366.56,368.38,384.32,384.48Z"/><path class="cls-3" d="M273.3,344.89c-6.32-5.25-22.66-11-36.25-4.17-12.88,6.56-16.93,16.46-16.22,22.9a35.73,35.73,0,0,0,10.49,21.11c6.8,6.56,21.11,7.75,29.57,6.2,8-1.43,17.65-3.58,22.42-18.13C288.33,357.29,278.19,348.95,273.3,344.89Z"/><path class="cls-6" d="M264.12,345.49c-2.86-2.15-14.19-3.7-18.36-2.27-3.1,1.07-1,12.52,6.92,14.31S267,347.64,264.12,345.49Z"/><path class="cls-3" d="M254.23,358.37a9.2,9.2,0,0,1-1.79-.24c-6-1.43-8.47-7.63-8.7-11.33-.12-2.15.48-3.7,1.79-4.17,4.53-1.55,16,.12,19,2.38,1.19.83,1.19,3,.12,5.49C262.69,354.55,258.64,358.37,254.23,358.37Zm-3.94-15.14a15.06,15.06,0,0,0-4.41.48c-.72.24-1.07,1.43-1,3,.24,3.58,2.74,9.06,7.75,10.26s9.3-3.7,10.73-7c.83-1.91,1-3.46.36-4.05h0C261.86,344.54,255.3,343.22,250.29,343.22Z"/><path class="cls-11" d="M260.9,345.85c-2.38-1.07-11.33-2.38-14.55-2-2.38.36,0,5.49,6.08,6.68S263.29,346.92,260.9,345.85Z"/><path class="cls-8" d="M301.21,362.42c.6,9.06,2.62,15.74,16,17.29s20.27-3.58,22.9-14.43-3.58-18-16.93-19.68S300.49,352.76,301.21,362.42Z"/><path class="cls-8" d="M169.8,351.57c-.48,10.49,2.86,15.26,17.41,16.93s22.18-1.91,22.78-12.4-6-19.08-20.51-20.75S170.4,341.2,169.8,351.57Z"/><path class="cls-10" d="M302.4,359.44c-.72,3.46.6,10.26,13.71,12.88s20.39,1.19,22.18-5.49-3.58-14.91-13.71-16.46C311.46,348.11,303.83,352.64,302.4,359.44Z"/><path class="cls-10" d="M171.95,352.17c-.36,3.34,1.67,9.54,15,11.33s20.51-.12,21.7-6.56-5.13-13.71-15.38-14.67C179.82,341,172.66,345.73,171.95,352.17Z"/><path class="cls-3" d="M220.6,323.31c1.91.48,3-4.17,6.92-4.65,4.77-.6,5.25,3.94,7.15,3.1,2.15-1-1.67-5.84-7.15-5.37C221.08,317,219.29,323,220.6,323.31Z"/><path class="cls-3" d="M220.84,324h-.48c-.24,0-1-.36-.83-1.67.12-1.79,2.38-6,7.87-6.44,4.29-.36,7.75,2.38,8.35,4.53a1.59,1.59,0,0,1-1,2c-1.19.48-2-.36-2.74-1.07a4.7,4.7,0,0,0-4.65-1.91c-1.91.24-3.1,1.67-4.17,2.86C222.63,323.07,221.79,324,220.84,324Zm0-1.31c.48,0,1.07-.6,1.67-1.43,1.07-1.19,2.5-3,4.89-3.22a6,6,0,0,1,5.6,2.27c.72.83,1.07,1,1.43.83.12,0,.36-.12.24-.6-.36-1.43-3.22-3.94-7-3.58a7.29,7.29,0,0,0-6.32,4.05C220.72,322,220.72,322.59,220.84,322.71Z"/><path class="cls-3" d="M277.72,327.36c1.43,1.91,4.41-3.1,8.11-2,4.65,1.31,3.46,5.84,5.6,5.84,2.38-.12.24-6.32-4.89-8.11C280.58,321.16,276.88,326.29,277.72,327.36Z"/><path class="cls-3" d="M291.31,331.78c-1.19,0-1.67-1.07-2.15-2.15-.6-1.43-1.19-3-3.58-3.7-1.67-.48-3.22.48-4.65,1.43s-2.86,1.79-3.82.36c-.48-.6-.24-1.55.48-2.62a8,8,0,0,1,9.06-2.62c4.17,1.43,6.56,5.6,6.2,7.75a1.44,1.44,0,0,1-1.55,1.55Zm-6.56-7.15a2.8,2.8,0,0,1,1.31.24c3,.83,3.82,3,4.41,4.41.48,1.07.72,1.43,1.07,1.43.12,0,.36,0,.36-.48.24-1.55-1.79-5.25-5.49-6.44a6.77,6.77,0,0,0-7.15,1.55,3.67,3.67,0,0,0-1.07,1.79c.36.36.83.24,2.27-.72A7.73,7.73,0,0,1,284.75,324.62Z"/><line class="cls-12" x1="253.63" y1="354.43" x2="251.72" y2="371.6"/><path class="cls-6" d="M251.64,354.73c-1.26,3-2.47,9.37-.92,17.91.16.86,2.56.27,2.36-.42-1.23-4.33-.61-13.14.92-17.91C254.37,353.16,251.94,354,251.64,354.73Z"/><path class="cls-6" d="M271.08,361.64a21.14,21.14,0,0,1-15.36,10.22c-10.67,1.32-16.76-4.85-22.47-13.58-1.09-1.56-4.45.35-3.19,2.17,5.32,10.18,13.78,16.08,25.88,14.6a26.44,26.44,0,0,0,18.66-12.54c1.09-2.08-2.52-2.52-3.52-.87Z"/><path class="cls-6" d="M270.72,361.71c-6.1,9.33-18.75,13.6-28.26,6.64a33.31,33.31,0,0,1-7.2-7.75c-1-1.38-1.48-3-3.36-3s-2.39,1.47-2.2,2.94c.29,2.19,3.14,5.15,4.61,6.81a24.23,24.23,0,0,0,6.9,5.5c8.06,4.21,18.17,3.05,25.62-1.9,1.56-1,10-7.56,8.07-9.92-1-1.31-3.3-.21-4.15.65-.14.14.53.05.65-.07l2.84,1a21.51,21.51,0,0,1-1.27,1.87,29.46,29.46,0,0,1-3.37,3.83,25.28,25.28,0,0,1-8.94,5.4,23.68,23.68,0,0,1-19.32-1.38,27,27,0,0,1-9.53-9.5c-1-1.63-2.3-2.21.25-2.83,2.11-.51,1.8-.09,2.89,1.39a41.11,41.11,0,0,0,3.49,4.25c9.92,10.34,25.43,7.53,33-4A.89.89,0,0,0,270.72,361.71Z"/><path class="cls-3" d="M317.66,306.38l-8.47-4.17a2.29,2.29,0,0,1-1.07-3.1c1.43-2.86,4.77-9.06,8.7-7.75,4.29,1.43,6.68,8.23,4.89,12.64C321,305.66,319.33,307.21,317.66,306.38Z"/><path class="cls-3" d="M217.14,292.42l-9.54,2.15a2,2,0,0,1-2.38-1.55v-.48c.12-3.82,2.62-9.78,6.92-10.61,3.22-.72,6.56,2.74,6.92,7.63a2.51,2.51,0,0,1-1.91,2.86Z"/><path class="cls-3" d="M246,589.59c-2.74-11-11.45-31.24-21.46-55.21-2.38-5.49-16.93-32-16.81-53.54.12-29.69,57.48-37.8,93.13-29.45,19.08,4.41,52.35,18.36,69.16,32.91,46.15,40.07,57.72,100,26.83,139.16-13.24,16.69-50.92,45.79-98.62,25.4-12.88-5.49-23.85-13-40.78-10.14-2.15.36-9.78-3.7-9.78-3.7C250.53,627.27,252.79,616.89,246,589.59Z"/><path class="cls-8" d="M250.17,568.72h0c0,3.1-3.34,5.72-7.39,5.6l-31.84-.24c-4.05,0-7.27-2.62-7.27-5.72h0c0-3.1,3.34-5.72,7.39-5.6l31.84.24C247,563,250.29,565.5,250.17,568.72Z"/><path class="cls-8" d="M242.9,577.9h0l-31.84-.24a11.63,11.63,0,0,1-8.23-3.22,8.22,8.22,0,0,1,0-12,11.84,11.84,0,0,1,8.23-3.22h.12l31.84.24a11.23,11.23,0,0,1,8.23,3.34,8.41,8.41,0,0,1,2.5,6,8.54,8.54,0,0,1-2.62,6A11.63,11.63,0,0,1,242.9,577.9Zm-31.84-11.57a4.49,4.49,0,0,0-3.22,1.19,1.47,1.47,0,0,0-.48,1,1.43,1.43,0,0,0,.48,1,4.62,4.62,0,0,0,3.22,1.19l31.84.24h0a4.49,4.49,0,0,0,3.22-1.19,1.47,1.47,0,0,0,.48-1h0a1.47,1.47,0,0,0-.48-1,4.49,4.49,0,0,0-3.22-1.19l-31.84-.24Z"/><path class="cls-10" d="M257.8,595.91h0c-3.58,1-7.51-.83-8.82-3.82l-9.18-21.46c-1.31-3,.48-6.2,4.05-7.15h0c3.58-1,7.51.72,8.82,3.82l9.18,21.46C263.17,591.73,261.26,595,257.8,595.91Z"/><path class="cls-8" d="M296.68,590.18h0c0,3.1-3.34,5.72-7.39,5.6l-31.84-.24c-4.05,0-7.27-2.62-7.27-5.72h0c0-3.1,3.34-5.72,7.39-5.6l31.84.24C293.46,584.46,296.68,587.08,296.68,590.18Z"/><path class="cls-8" d="M289.4,599.36h0l-31.84-.24a11.63,11.63,0,0,1-8.23-3.22,8.22,8.22,0,0,1,0-12,11.92,11.92,0,0,1,8.35-3.22l31.84.24a11.23,11.23,0,0,1,8.23,3.34,8.41,8.41,0,0,1,2.5,6,8.54,8.54,0,0,1-2.62,6A11.14,11.14,0,0,1,289.4,599.36ZM257.56,587.8a4.49,4.49,0,0,0-3.22,1.19,1.47,1.47,0,0,0-.48,1,1.43,1.43,0,0,0,.48,1,4.62,4.62,0,0,0,3.22,1.19l31.84.24h0a4.49,4.49,0,0,0,3.22-1.19,1.47,1.47,0,0,0,.48-1h0a1.47,1.47,0,0,0-.48-1A4.49,4.49,0,0,0,289.4,588l-31.84-.24Z"/><path class="cls-6" d="M377.88,442c-13.24,1-13.83,27.9-16.81,46.39-1.79,11.45-2.86,26-8.82,38.28-6.68,13.71-11.45,16.81-19.32,22.9s-13.12,7.63-21.82,12.16c-23.73,12.52-27.67,21.7-22.54,30.41,4.41,7.51,23.85,6.32,37.09,3.22,20.63-4.89,54.38-21.23,65.35-41.5C408.65,520.9,424.39,438.5,377.88,442Z"/><path class="cls-3" d="M377.88,441.72c-12.76,1.67-13.83,21.46-15.14,31-2.86,21.11-3.7,44.12-15.62,62.48-11.21,17.17-31.72,22.18-47.82,33.27-7.39,5.13-18.72,15.62-10.26,25.16,3.94,4.41,11.69,4.53,17.05,4.53a90.81,90.81,0,0,0,23.37-3.46A132.63,132.63,0,0,0,376.1,571.1c21.35-17.29,29-48.18,31.84-74.41,2.62-22.54.24-56.88-30-55-.48,0-.72.6-.12.6C404.59,440.65,409,469,407.81,489.9a172.33,172.33,0,0,1-6.56,36.49c-3.1,11-7,23-13.71,32.32-10.14,14-26.83,23.25-42.45,29.93-14.31,6.08-33.27,12.28-48.89,8-5.84-1.55-10-6.32-8.94-12.64,1.07-6.92,8.11-12,13.47-15.62,13.47-9.06,29-13.83,40.9-25.28,14.43-13.83,16.93-34.22,19.68-52.95,1.19-8.47,2.15-17.05,3.58-25.52,1.31-7.63,3.34-21.11,13-22.3C378.24,442.2,378.48,441.6,377.88,441.72Z"/><path class="cls-1" d="M491.41,915.37c-40.07,1.07-80.37,1.43-120,1"/><path class="cls-1" d="M492.72,913.34c-39.95,1.07-79.89,1.31-120,1-2.74,0-7.27,4.05-2.62,4.17,39.95.48,80,.12,120-1C492.84,917.39,497.37,913.1,492.72,913.34Z"/><path class="cls-1" d="M312.78,914.17c-150.37,8.82-232.05-1-226-.6"/><path class="cls-1" d="M313.25,912c-70.59,4.17-142,6.2-212.62.6-3.1-.24-6.08-.48-9.18-.83a8.93,8.93,0,0,0-2.5-.24c-1,.24-.36-.12.36.24l.48,1.91h0l-3.7,1.91h-.6c2.86.24,7.27-3.94,2.62-4.29-1.67-.12-3.94.36-4.89,1.91a1.22,1.22,0,0,0,.36,1.79c.12,0,.12.12.24.12,2.86,1.19,7,1,10.14,1.31,8.82.72,17.77,1.31,26.71,1.79,35.06,1.79,70.12,1.91,105.29,1.31,28.86-.6,57.72-1.67,86.57-3.46,3.46-.12,5.49-4.41.72-4.05Z"/><path class="cls-13" d="M127.12,276.93h0a3.48,3.48,0,0,1-1.67-.6c-.24-.24-7.63-5.37-13-8.7-3.58-2.27-16-2.15-30.41-2.15h-.36c-19.68.12-44.12.24-58.55-5.37C11.69,255.7,4.42,247.83,1.44,236.5s-.6-22.3.6-26.35c2-7,7.75-13,16.93-17.53,7.51-3.82,17.29-6.68,29.22-8.7a261.5,261.5,0,0,1,49.25-2.86c16.34.83,29,3,38.52,6.56a51.35,51.35,0,0,1,21.23,14.19c5.37,6,7.51,24.21,2.38,38.87-2.27,6.32-6.8,14.31-15.62,16.46-15.14,3.7-15.38,11.33-15.5,15.5v1.91c.12.83.24,1.79-.6,2.27C127.6,276.81,127.36,276.93,127.12,276.93Zm-36.61-13c11.69,0,19.56.48,22.66,2.38,5.6,3.46,13,8.7,13.12,8.82a2,2,0,0,0,.6.24v-3c.12-4.53.36-13,16.69-16.93,8.23-2,12.52-9.54,14.55-15.5a55.85,55.85,0,0,0,2.74-21.7c-.48-7-2.27-12.88-4.77-15.74a51.72,51.72,0,0,0-20.63-13.83c-9.42-3.58-21.94-5.6-38-6.44-.6,0-4.17-.24-9.42-.24h0a260.7,260.7,0,0,0-39.71,3c-11.81,1.91-21.46,4.89-28.74,8.59-8.82,4.41-14.19,10-16.22,16.81-1,3.1-3.58,14.19-.6,25.52,2.86,10.85,9.78,18.48,20.75,22.66C37.69,264,62,263.93,81.57,263.81h.12C84.91,263.93,87.77,263.93,90.52,263.93Z"/><path class="cls-6" d="M130.09,273a5.89,5.89,0,0,1-2-.6l-.24-.12c-.12,0-7.51-5.25-13-8.7-3.34-2.15-16.46-2-30.17-1.91-19.79.12-44.36.36-59-5.37-11.57-4.41-19.2-12.88-22.18-24.45s-.6-22.66.6-26.95c3.82-13.36,19.68-22.54,47-27.07,24.21-4.05,48.41-2.86,49.49-2.86,38.16,1.91,51.63,11.21,60.46,21.11,6,6.56,7.39,24.45,3.1,38.16-3.22,10.37-9.06,16.93-16.93,18.84-14.43,3.46-14.55,10.37-14.67,14.55v1.79c.12.83.24,2.38-1,3.22A4.12,4.12,0,0,1,130.09,273ZM92.77,258c12.88,0,20.63.36,24,2.5,4.29,2.74,9.66,6.44,11.92,8v-1.07c.12-4.53.36-13.83,17.41-17.89,8.35-2,12.4-10,14.43-16.46,4.17-13.47,2.15-29.69-2.38-34.7-11.33-12.64-28.14-18.36-58-19.91-23.25-1.19-85.38,1.43-92.89,27.31-1.07,3.7-9.18,35.89,19.44,47C40.78,258.08,65,258,84.42,257.84,87.52,258,90.26,258,92.77,258Z"/><g class="cls-14"><path d="M36.48,230.54l.12-12.28V206.33a4.22,4.22,0,0,0-.72.12c-.83,0-1.31-.48-1.31-1.43a2.44,2.44,0,0,1,1.07-1.79A8.29,8.29,0,0,1,38.39,202a22.37,22.37,0,0,1,6-.83,15.61,15.61,0,0,1,4.89.72,8.56,8.56,0,0,1,3.58,2,7.2,7.2,0,0,1,2.62,5.13,7.78,7.78,0,0,1-4.65,7.39,9.61,9.61,0,0,1,5,3.34,8.6,8.6,0,0,1,2,5.37,8,8,0,0,1-3.7,7q-3.76,2.5-10,2.5a24.16,24.16,0,0,1-7.15-1c-1.91-.6-2.86-1.43-2.86-2.38a1.22,1.22,0,0,1,1.19-1.19A3.5,3.5,0,0,1,36.48,230.54ZM44,204.18a18.5,18.5,0,0,0-4.17.6c-.12,1.55-.12,5.13-.12,10.73a8,8,0,0,1,3-.48,20.1,20.1,0,0,1,3.94.36,4.53,4.53,0,0,0,2.15-.72,6.63,6.63,0,0,0,2.38-2.15,6.06,6.06,0,0,0,1.19-3.46,4.31,4.31,0,0,0-2-3.46C48.88,204.66,46.86,204.18,44,204.18Zm0,27.67a14.17,14.17,0,0,0,7.63-1.79,5.66,5.66,0,0,0,2.86-5.13,5.13,5.13,0,0,0-2.27-4.41,10,10,0,0,0-4.89-2.15,28.58,28.58,0,0,1-5.13.6,7.93,7.93,0,0,1-2.5-.36c0,6.32,0,10.49.12,12.76A16.62,16.62,0,0,0,44,231.85Z"/><path d="M73.09,212.05A8,8,0,0,1,78.7,214a6.5,6.5,0,0,1,2.15,5,5.3,5.3,0,0,1-2.62,4.65,12.43,12.43,0,0,1-6.56,1.55,36.13,36.13,0,0,1-5.49-.6,8.12,8.12,0,0,0,2.27,5.13,6,6,0,0,0,4.41,2.15,10.16,10.16,0,0,0,2.74-.36,10,10,0,0,0,1.91-.83,6.78,6.78,0,0,1,2.27-1.31A1.22,1.22,0,0,1,81,230.54c0,.83-.83,1.67-2.5,2.74a9.68,9.68,0,0,1-5.37,1.55,8.7,8.7,0,0,1-7-3.1,12.21,12.21,0,0,1-2.86-7.51c-1.55-.48-2.27-1.19-2.27-2.27a1.17,1.17,0,0,1,.36-1,1.29,1.29,0,0,1,.83-.36,3.62,3.62,0,0,1,1.31.36A11.94,11.94,0,0,1,67,214.68,7.89,7.89,0,0,1,73.09,212.05Zm-1.67,10.49a10.37,10.37,0,0,0,4.65-1A2.91,2.91,0,0,0,77.86,219a3.88,3.88,0,0,0-1.19-2.86,4,4,0,0,0-3.22-1.19,6.18,6.18,0,0,0-4.77,2.15,10,10,0,0,0-2.5,5A34.25,34.25,0,0,0,71.42,222.55Z"/><path d="M89.19,218l.24,14.43c0,1.43-.6,2.15-1.67,2.15s-1.67-.72-1.67-2.15L86.33,218l-.24-14.43c0-1.43.6-2.15,1.67-2.15s1.67.72,1.67,2.15Z"/><path d="M98.85,218l.24,14.43c0,1.43-.6,2.15-1.67,2.15s-1.67-.72-1.67-2.15L96,218l-.24-14.43c0-1.43.6-2.15,1.67-2.15s1.67.72,1.67,2.15Z"/><path d="M114.35,212.05a9,9,0,0,1,7.27,3.34,12.92,12.92,0,0,1,0,16.22,9,9,0,0,1-7.27,3.34,8.76,8.76,0,0,1-7.15-3.34,12.67,12.67,0,0,1-2.86-8.11,12,12,0,0,1,2.86-8.11A8.6,8.6,0,0,1,114.35,212.05Zm4.89,17.41a8.94,8.94,0,0,0,2-6.08,9.58,9.58,0,0,0-2-6.08,6.26,6.26,0,0,0-10,0,8.94,8.94,0,0,0-2,6.08,9.58,9.58,0,0,0,2,6.08,6.1,6.1,0,0,0,5,2.5A6.43,6.43,0,0,0,119.24,229.46Z"/><path d="M131.64,229.82a1.54,1.54,0,0,1,1.31.6,2.52,2.52,0,0,1,.48,1.67,2.93,2.93,0,0,1-.6,1.79,1.74,1.74,0,0,1-1.55.83A1.37,1.37,0,0,1,130,234a2.52,2.52,0,0,1-.48-1.67,3.21,3.21,0,0,1,.6-1.79A2.31,2.31,0,0,1,131.64,229.82ZM133,214l.12,9.06c0,1.43-.48,2.15-1.55,2.15S130,224.45,130,223l.12-9.06c0-1.67,0-3.82-.12-6.32s-.12-3.94-.12-4.05c0-1.43.6-2.15,1.67-2.15s1.67.72,1.67,2.15c0,.12,0,1.55-.12,4.05S133,212.29,133,214Z"/></g><g class="cls-15"><path class="cls-4" d="M350.5,8c-57,.55-70.21,46.94-71.07,95.75C278.88,136,302.75,229,333.75,243.63c59.62,28.16,74.22-3,103,22.53,7,6.18,2.48,21.65,2.48,21.65,1.51,1.44,36.51-23.41,52.93-26.06,72.8-11.71,196.37-8,236-28.71C769,211.71,762.69,119.82,763.34,84.6c1.3-66.48-92.46-68.91-222.62-72.78"/></g><path class="cls-16" d="M357,1.41c-56.49,8-67.21,46.94-68.07,95.75-.54,32.25,20.32,125.27,51.32,139.84,59.62,28.16,74.22-3,103,22.53,7,6.29-1.73,26-1.73,26,1.51,1.44,40.61-27.61,57-30.26,72.8-11.71,196.26-8,236-28.71,40.72-21.31,36.19-113.2,35.32-148.43C767.64-2.21,680.15,3.42,546.64,0"/><path d="M320,42l-.2,13.48q0,4,.16,12a36,36,0,0,0,4.22.2q2.58,0,4.72-.14t2.72-.14a1.81,1.81,0,0,1,1.12.42,1.47,1.47,0,0,1,0,2.28,2.32,2.32,0,0,1-1.46.42l-6-.2-6.48.2a2.09,2.09,0,0,1-1.48-.52,2,2,0,0,1-.56-1.52l.2-13L316.71,42a2.33,2.33,0,0,1,.44-1.48,1.57,1.57,0,0,1,2.4,0A2.33,2.33,0,0,1,320,42Z"/><path d="M345.65,49.73a7.58,7.58,0,0,1,5.24,1.8,6,6,0,0,1,2,4.68,4.81,4.81,0,0,1-2.5,4.38,11.74,11.74,0,0,1-6.14,1.5,26.63,26.63,0,0,1-5.08-.6,7.92,7.92,0,0,0,2.1,4.82,5.54,5.54,0,0,0,4.14,2,8.05,8.05,0,0,0,2.52-.38,6.4,6.4,0,0,0,1.76-.82,5.31,5.31,0,0,1,2.1-1.24,1.08,1.08,0,0,1,.8.3,1,1,0,0,1,.3.74q0,1.12-2.3,2.56a9.21,9.21,0,0,1-5,1.44A8.15,8.15,0,0,1,339,68a11.53,11.53,0,0,1-2.64-7q-2.12-.64-2.12-2.08a1.27,1.27,0,0,1,.34-.94,1.12,1.12,0,0,1,.82-.34,2.83,2.83,0,0,1,1.2.36A11.76,11.76,0,0,1,340,52,8,8,0,0,1,345.65,49.73Zm-1.52,9.84a8.73,8.73,0,0,0,4.32-.92,2.78,2.78,0,0,0,1.62-2.48,3.83,3.83,0,0,0-1.06-2.7,3.92,3.92,0,0,0-3-1.14,5.76,5.76,0,0,0-4.44,2,9.45,9.45,0,0,0-2.32,4.62A17.51,17.51,0,0,0,344.13,59.57Z"/><path d="M362.19,52.77l-.08,9.48a23.2,23.2,0,0,0,.3,4.76A1.45,1.45,0,0,0,364,68.13a3.47,3.47,0,0,0,1.46-.42,3.54,3.54,0,0,1,1.14-.42.73.73,0,0,1,.84.82q0,.82-1.48,1.72a5.6,5.6,0,0,1-2.92.9q-3.48,0-3.48-5.12l0-12.84q-1.32.12-1.84.12-2,0-2-1.32t2-1.32l1.76.08-.08-4.48q0-2,1.52-2t1.52,2l-.12,4.52,3.24-.16q2,0,2,1.36t-2,1.28Z"/><path d="M371.75,46.53l-.24-2.92a2.77,2.77,0,0,1,.54-1.64,1.68,1.68,0,0,1,1.44-.76,1.53,1.53,0,0,1,1.34.62,2.33,2.33,0,0,1,.44,1.38,11.39,11.39,0,0,1-1.42,5.42q-1.42,2.66-2.78,2.66a.8.8,0,0,1-.56-.22.66.66,0,0,1-.24-.5A5.29,5.29,0,0,1,371,49,4.91,4.91,0,0,0,371.75,46.53Z"/><path d="M393.23,64.57A5.37,5.37,0,0,1,391,69a8.43,8.43,0,0,1-5.32,1.72,10,10,0,0,1-5.38-1.42Q378,67.89,378,66.49a1.37,1.37,0,0,1,.36-1,1.1,1.1,0,0,1,.82-.38,1.35,1.35,0,0,1,.74.18,4.56,4.56,0,0,1,.76.7q.48.52.86.88a5,5,0,0,0,1.56.8,6.26,6.26,0,0,0,2.18.44,6.65,6.65,0,0,0,3.62-.9,2.91,2.91,0,0,0,1.42-2.62q0-2.08-4-3.48-1.64-.56-3.3-1.22a8.21,8.21,0,0,1-2.82-1.82,3.77,3.77,0,0,1-1.16-2.76,4.8,4.8,0,0,1,2-3.78,7.28,7.28,0,0,1,4.8-1.62,8.84,8.84,0,0,1,4.5,1Q392,51.89,392,53q0,1.32-1.4,1.32a2,2,0,0,1-1.2-.44,6.32,6.32,0,0,0-3.6-1.32,4.67,4.67,0,0,0-2.8.78,2.22,2.22,0,0,0-1.08,1.8,2.06,2.06,0,0,0,1.16,1.74,15.08,15.08,0,0,0,2.82,1.32q1.66.6,3.34,1.34a8.17,8.17,0,0,1,2.84,2A4.4,4.4,0,0,1,393.23,64.57Z"/><path d="M421,64.57A5.37,5.37,0,0,1,418.73,69a8.43,8.43,0,0,1-5.32,1.72A10,10,0,0,1,408,69.31q-2.28-1.42-2.28-2.82a1.37,1.37,0,0,1,.36-1,1.1,1.1,0,0,1,.82-.38,1.35,1.35,0,0,1,.74.18,4.56,4.56,0,0,1,.76.7q.48.52.86.88a5,5,0,0,0,1.56.8,6.26,6.26,0,0,0,2.18.44,6.65,6.65,0,0,0,3.62-.9,2.91,2.91,0,0,0,1.42-2.62q0-2.08-4-3.48-1.64-.56-3.3-1.22A8.21,8.21,0,0,1,408,58.09a3.77,3.77,0,0,1-1.16-2.76,4.8,4.8,0,0,1,2-3.78,7.28,7.28,0,0,1,4.8-1.62,8.84,8.84,0,0,1,4.5,1q1.66,1,1.66,2.06,0,1.32-1.4,1.32a2,2,0,0,1-1.2-.44,6.32,6.32,0,0,0-3.6-1.32,4.67,4.67,0,0,0-2.8.78,2.22,2.22,0,0,0-1.08,1.8,2.06,2.06,0,0,0,1.16,1.74,15.08,15.08,0,0,0,2.82,1.32q1.66.6,3.34,1.34a8.17,8.17,0,0,1,2.84,2A4.4,4.4,0,0,1,421,64.57Z"/><path d="M429.83,52.77l-.08,9.48a23.2,23.2,0,0,0,.3,4.76,1.45,1.45,0,0,0,1.58,1.12,3.47,3.47,0,0,0,1.46-.42,3.54,3.54,0,0,1,1.14-.42.73.73,0,0,1,.84.82q0,.82-1.48,1.72a5.6,5.6,0,0,1-2.92.9q-3.48,0-3.48-5.12l0-12.84q-1.32.12-1.84.12-2,0-2-1.32t2-1.32l1.76.08L427,45.85q0-2,1.52-2t1.52,2l-.12,4.52,3.24-.16q2,0,2,1.36t-2,1.28Z"/><path d="M454.67,60.65a22.33,22.33,0,0,0,.44,4.9q.44,1.9,1,2.14a1.74,1.74,0,0,0,.58.16,1.38,1.38,0,0,1,.48.12.34.34,0,0,1,.14.32,2.62,2.62,0,0,1-.58,1.76,2.16,2.16,0,0,1-1.74.68q-1.16,0-1.8-1.48a9.63,9.63,0,0,1-.64-3.8,9.77,9.77,0,0,1-2.94,3.76,6.89,6.89,0,0,1-4.36,1.52,6,6,0,0,1-4.18-1.6q-3.2-2.92-3.2-8.36a12,12,0,0,1,2.52-7.6,7.85,7.85,0,0,1,6.48-3.24,7.39,7.39,0,0,1,5.2,2q0-2,1.52-2,1.84,0,1.84,2.82A54.44,54.44,0,0,1,454.67,60.65Zm-2.32.36-.2-6.16a7.2,7.2,0,0,0-5-2.32,5.6,5.6,0,0,0-4.5,2.36,8.8,8.8,0,0,0-1.88,5.66A10.87,10.87,0,0,0,442,66a3.8,3.8,0,0,0,3.46,2.14,5.46,5.46,0,0,0,4.08-2A13.55,13.55,0,0,0,452.35,61Z"/><path d="M464.79,61.17l.12,7.52q0,2-1.52,2-1.84,0-1.84-2.82a54.3,54.3,0,0,1,.8-7.9,42.33,42.33,0,0,0-.34-4.6q-.34-2.92-.34-3.64a2.08,2.08,0,0,1,.42-1.28,1.44,1.44,0,0,1,2.28,0,2,2,0,0,1,.42,1.22q0,.66,0,1.68t0,1.7a9.6,9.6,0,0,1,2.5-3.6,5.17,5.17,0,0,1,3.5-1.56,4.54,4.54,0,0,1,2.78.74,2,2,0,0,1,1,1.58,1.88,1.88,0,0,1-.44,1.32,1.48,1.48,0,0,1-1.14.48,2.37,2.37,0,0,1-1.52-.74,2.31,2.31,0,0,0-1.3-.74q-1.32,0-3.08,2.84A15.76,15.76,0,0,0,464.79,61.17Z"/><path d="M482.47,52.77l-.08,9.48a23.2,23.2,0,0,0,.3,4.76,1.45,1.45,0,0,0,1.58,1.12,3.47,3.47,0,0,0,1.46-.42,3.54,3.54,0,0,1,1.14-.42.73.73,0,0,1,.84.82q0,.82-1.48,1.72a5.6,5.6,0,0,1-2.92.9q-3.48,0-3.48-5.12l0-12.84q-1.32.12-1.84.12-2,0-2-1.32t2-1.32l1.76.08-.08-4.48q0-2,1.52-2t1.52,2l-.12,4.52,3.24-.16q2,0,2,1.36t-2,1.28Z"/><path d="M516,66.21q1,0,1,1.06t-2.32,2.36a9.85,9.85,0,0,1-4.88,1.3,9,9,0,0,1-7-3.1,11.41,11.41,0,0,1,0-15,9.55,9.55,0,0,1,7.42-3.1,8.64,8.64,0,0,1,4.46,1.14q1.94,1.14,1.94,2.34a1.48,1.48,0,0,1-.4,1.06,1.24,1.24,0,0,1-.92.42,2,2,0,0,1-1.2-.6,6.55,6.55,0,0,0-4.24-1.76,6.27,6.27,0,0,0-4.82,2.32A8.2,8.2,0,0,0,503,60.29,8.3,8.3,0,0,0,505.07,66a6.6,6.6,0,0,0,5.16,2.36,7.83,7.83,0,0,0,4.6-1.6A2.4,2.4,0,0,1,516,66.21Z"/><path d="M524.47,61.17l.12,7.52q0,2-1.52,2-1.84,0-1.84-2.82A54.3,54.3,0,0,1,522,60a42.33,42.33,0,0,0-.34-4.6q-.34-2.92-.34-3.64a2.08,2.08,0,0,1,.42-1.28,1.44,1.44,0,0,1,2.28,0,2,2,0,0,1,.42,1.22q0,.66,0,1.68t0,1.7a9.6,9.6,0,0,1,2.5-3.6,5.17,5.17,0,0,1,3.5-1.56,4.54,4.54,0,0,1,2.78.74,2,2,0,0,1,1,1.58,1.88,1.88,0,0,1-.44,1.32,1.48,1.48,0,0,1-1.14.48,2.37,2.37,0,0,1-1.52-.74,2.31,2.31,0,0,0-1.3-.74q-1.32,0-3.08,2.84A15.76,15.76,0,0,0,524.47,61.17Z"/><path d="M546,49.73a7.58,7.58,0,0,1,5.24,1.8,6,6,0,0,1,2,4.68,4.81,4.81,0,0,1-2.5,4.38,11.74,11.74,0,0,1-6.14,1.5,26.63,26.63,0,0,1-5.08-.6,7.92,7.92,0,0,0,2.1,4.82,5.54,5.54,0,0,0,4.14,2,8.05,8.05,0,0,0,2.52-.38,6.4,6.4,0,0,0,1.76-.82,5.31,5.31,0,0,1,2.1-1.24,1.08,1.08,0,0,1,.8.3,1,1,0,0,1,.3.74q0,1.12-2.3,2.56a9.21,9.21,0,0,1-5,1.44,8.15,8.15,0,0,1-6.6-2.92,11.53,11.53,0,0,1-2.64-7q-2.12-.64-2.12-2.08a1.27,1.27,0,0,1,.34-.94,1.12,1.12,0,0,1,.82-.34A2.83,2.83,0,0,1,537,58,11.76,11.76,0,0,1,540.29,52,8,8,0,0,1,546,49.73Zm-1.52,9.84a8.73,8.73,0,0,0,4.32-.92,2.78,2.78,0,0,0,1.62-2.48,3.83,3.83,0,0,0-1.06-2.7,3.92,3.92,0,0,0-3-1.14,5.76,5.76,0,0,0-4.44,2,9.45,9.45,0,0,0-2.32,4.62A17.51,17.51,0,0,0,544.45,59.57Z"/><path d="M573.87,60.65a22.33,22.33,0,0,0,.44,4.9q.44,1.9,1,2.14a1.74,1.74,0,0,0,.58.16,1.38,1.38,0,0,1,.48.12.34.34,0,0,1,.14.32A2.62,2.62,0,0,1,576,70a2.16,2.16,0,0,1-1.74.68q-1.16,0-1.8-1.48a9.63,9.63,0,0,1-.64-3.8,9.77,9.77,0,0,1-2.94,3.76,6.89,6.89,0,0,1-4.36,1.52,6,6,0,0,1-4.18-1.6q-3.2-2.92-3.2-8.36a12,12,0,0,1,2.52-7.6,7.85,7.85,0,0,1,6.48-3.24,7.39,7.39,0,0,1,5.2,2q0-2,1.52-2,1.84,0,1.84,2.82A54.44,54.44,0,0,1,573.87,60.65Zm-2.32.36-.2-6.16a7.2,7.2,0,0,0-5-2.32,5.6,5.6,0,0,0-4.5,2.36,8.8,8.8,0,0,0-1.88,5.66A10.87,10.87,0,0,0,561.17,66a3.8,3.8,0,0,0,3.46,2.14,5.46,5.46,0,0,0,4.08-2A13.55,13.55,0,0,0,571.55,61Z"/><path d="M585.35,52.77l-.08,9.48a23.2,23.2,0,0,0,.3,4.76,1.45,1.45,0,0,0,1.58,1.12,3.47,3.47,0,0,0,1.46-.42,3.54,3.54,0,0,1,1.14-.42.73.73,0,0,1,.84.82q0,.82-1.48,1.72a5.6,5.6,0,0,1-2.92.9q-3.48,0-3.48-5.12l0-12.84q-1.32.12-1.84.12-2,0-2-1.32t2-1.32l1.76.08-.08-4.48q0-2,1.52-2t1.52,2l-.12,4.52,3.24-.16q2,0,2,1.36t-2,1.28Z"/><path d="M596.19,41.33a1.44,1.44,0,0,1,1.24.54,2.23,2.23,0,0,1,.4,1.36,2.89,2.89,0,0,1-.56,1.64,1.65,1.65,0,0,1-1.4.82,1.47,1.47,0,0,1-1.26-.56,2.4,2.4,0,0,1-.42-1.48,2.46,2.46,0,0,1,.58-1.62A1.78,1.78,0,0,1,596.19,41.33Zm1.12,19,.2,8.4q0,2-1.52,2t-1.52-2l.2-8.4-.2-8.4q0-2,1.52-2t1.52,2Z"/><path d="M620.31,57.73l-.2,6.28q0,1.12,0,1.7a4,4,0,0,0,.24,1.2,1.21,1.21,0,0,0,.54.76,2.29,2.29,0,0,0,.66.18A1.38,1.38,0,0,1,622,68a.34.34,0,0,1,.14.32,2.44,2.44,0,0,1-.66,1.74,2.06,2.06,0,0,1-1.54.7,2.12,2.12,0,0,1-2.1-1.2,8.36,8.36,0,0,1-.58-3.52l.16-7.36a7.6,7.6,0,0,0-1.16-4.4,3.7,3.7,0,0,0-3.22-1.68,5.33,5.33,0,0,0-4,2.28A13.1,13.1,0,0,0,606.43,60l.12,8.68q0,2-1.52,2-1.84,0-1.84-2.82A54.3,54.3,0,0,1,604,60a43.4,43.4,0,0,0-.34-4.64q-.34-3-.34-3.66a2,2,0,0,1,.42-1.24,1.47,1.47,0,0,1,2.28,0,1.94,1.94,0,0,1,.42,1.22q0,.68,0,1.66t0,1.66q2.92-5.08,7.2-5.08a5.9,5.9,0,0,1,5,2.28A8.77,8.77,0,0,1,620.31,57.73Z"/><path d="M639.87,51.81q.08-1.88,1.52-1.88,1.84,0,1.84,2.82a54.38,54.38,0,0,1-.8,7.9q.48,4.88.48,7.28a13.39,13.39,0,0,1-2.46,8.42,8.22,8.22,0,0,1-6.9,3.18,11,11,0,0,1-4.68-1q-2.2-1-2.2-2t.92-1a8.69,8.69,0,0,1,2.06.74,9.69,9.69,0,0,0,3.9.74,6,6,0,0,0,5-2.4,9.91,9.91,0,0,0,1.84-6.2,19.35,19.35,0,0,0-.2-2.88,9,9,0,0,1-2.86,3.72,6.53,6.53,0,0,1-4.08,1.56,6.65,6.65,0,0,1-3.58-.92,7.36,7.36,0,0,1-2.4-2.4,13.3,13.3,0,0,1-1.8-7,11.08,11.08,0,0,1,2.7-7.24,8.33,8.33,0,0,1,6.66-3.26A7.59,7.59,0,0,1,639.87,51.81Zm.08,9.16V54.85a6.6,6.6,0,0,0-4.86-2.32,5.89,5.89,0,0,0-4.64,2.38,8.54,8.54,0,0,0-2,5.64A10.75,10.75,0,0,0,629.71,66a3.8,3.8,0,0,0,3.42,2.16,5.37,5.37,0,0,0,4-2A13.53,13.53,0,0,0,639.95,61Z"/><path d="M672.23,60.65,672.11,52q0-2,1.52-2,1.84,0,1.84,3a56.78,56.78,0,0,1-.84,7.72q.48,4.88.48,7.28a13,13,0,0,1-2.56,8.42,8.72,8.72,0,0,1-7.2,3.18,11,11,0,0,1-4.68-1q-2.2-1-2.2-2t.92-1a9.62,9.62,0,0,1,2.22.74,9.84,9.84,0,0,0,3.74.74,6.51,6.51,0,0,0,5.32-2.4,9.49,9.49,0,0,0,2-6.2q0-1.4-.12-2.72-3,5.12-7.44,5.12a5.81,5.81,0,0,1-5-2.38,9.51,9.51,0,0,1-1.76-5.82l.24-6a13.17,13.17,0,0,0-.32-3,10.09,10.09,0,0,1-.32-2,1.56,1.56,0,0,1,.48-1.1,1.64,1.64,0,0,1,1.24-.5q1.84,0,1.84,3.28l-.32,8.8a7.69,7.69,0,0,0,1.16,4.42,3.69,3.69,0,0,0,3.22,1.7q2.06,0,4-2.3A13.28,13.28,0,0,0,672.23,60.65Z"/><path d="M689.45,49.73a8.51,8.51,0,0,1,6.74,3.06,11.08,11.08,0,0,1,2.64,7.5,11.13,11.13,0,0,1-2.68,7.54,8.91,8.91,0,0,1-13.48,0,11.08,11.08,0,0,1-2.64-7.5,11.18,11.18,0,0,1,2.66-7.54A8.52,8.52,0,0,1,689.45,49.73ZM694,66a9.38,9.38,0,0,0,.08-11.32,5.7,5.7,0,0,0-4.62-2.32,5.89,5.89,0,0,0-4.7,2.36A9.38,9.38,0,0,0,684.73,66a5.7,5.7,0,0,0,4.62,2.32A5.89,5.89,0,0,0,694,66Z"/><path d="M706.71,53.21l-.32,8.8a7.69,7.69,0,0,0,1.16,4.42,3.69,3.69,0,0,0,3.22,1.7q2.06,0,4-2.3a13.28,13.28,0,0,0,2.68-5.18L717.31,52q0-2,1.52-2,1.84,0,1.84,2.82a54.44,54.44,0,0,1-.8,7.9,22.33,22.33,0,0,0,.44,4.9q.44,1.9,1,2.14a1.74,1.74,0,0,0,.58.16,1.38,1.38,0,0,1,.48.12.34.34,0,0,1,.14.32,2.42,2.42,0,0,1-.66,1.76,2.22,2.22,0,0,1-1.66.68q-2.52,0-2.52-5.12-3,5.12-7.44,5.12a5.81,5.81,0,0,1-5-2.38,9.51,9.51,0,0,1-1.76-5.82l.24-6a13.17,13.17,0,0,0-.32-3,10.09,10.09,0,0,1-.32-2,1.56,1.56,0,0,1,.48-1.1,1.64,1.64,0,0,1,1.24-.5Q706.71,49.93,706.71,53.21Z"/><path d="M730,61.17l.12,7.52q0,2-1.52,2-1.84,0-1.84-2.82a54.3,54.3,0,0,1,.8-7.9,42.33,42.33,0,0,0-.34-4.6q-.34-2.92-.34-3.64a2.08,2.08,0,0,1,.42-1.28,1.44,1.44,0,0,1,2.28,0,2,2,0,0,1,.42,1.22q0,.66,0,1.68t0,1.7a9.6,9.6,0,0,1,2.5-3.6,5.17,5.17,0,0,1,3.5-1.56,4.54,4.54,0,0,1,2.78.74,2,2,0,0,1,1,1.58,1.88,1.88,0,0,1-.44,1.32,1.48,1.48,0,0,1-1.14.48,2.37,2.37,0,0,1-1.52-.74,2.31,2.31,0,0,0-1.3-.74q-1.32,0-3.08,2.84A15.76,15.76,0,0,0,730,61.17Z"/><path d="M351.15,105.73,351,112q0,1.12,0,1.7a4,4,0,0,0,.24,1.2,1.21,1.21,0,0,0,.54.76,2.29,2.29,0,0,0,.66.18,1.38,1.38,0,0,1,.48.12.34.34,0,0,1,.14.32,2.44,2.44,0,0,1-.66,1.74,2.06,2.06,0,0,1-1.54.7,2.12,2.12,0,0,1-2.1-1.2,8.36,8.36,0,0,1-.58-3.52l.16-7.36a7.6,7.6,0,0,0-1.16-4.4,3.7,3.7,0,0,0-3.22-1.68,5.33,5.33,0,0,0-4,2.28,13.1,13.1,0,0,0-2.68,5.16l.12,8.68q0,2-1.52,2-1.84,0-1.84-2.82a54.3,54.3,0,0,1,.8-7.9,43.4,43.4,0,0,0-.34-4.64q-.34-3-.34-3.66a2,2,0,0,1,.42-1.24,1.47,1.47,0,0,1,2.28,0,1.94,1.94,0,0,1,.42,1.22q0,.68,0,1.66t0,1.66q2.92-5.08,7.2-5.08a5.9,5.9,0,0,1,5,2.28A8.77,8.77,0,0,1,351.15,105.73Z"/><path d="M366.81,97.73a7.58,7.58,0,0,1,5.24,1.8,6,6,0,0,1,2,4.68,4.81,4.81,0,0,1-2.5,4.38,11.74,11.74,0,0,1-6.14,1.5,26.63,26.63,0,0,1-5.08-.6,7.92,7.92,0,0,0,2.1,4.82,5.54,5.54,0,0,0,4.14,2,8.05,8.05,0,0,0,2.52-.38,6.4,6.4,0,0,0,1.76-.82,5.31,5.31,0,0,1,2.1-1.24,1.08,1.08,0,0,1,.8.3,1,1,0,0,1,.3.74q0,1.12-2.3,2.56a9.21,9.21,0,0,1-5,1.44,8.15,8.15,0,0,1-6.6-2.92,11.53,11.53,0,0,1-2.64-7q-2.12-.64-2.12-2.08a1.27,1.27,0,0,1,.34-.94,1.12,1.12,0,0,1,.82-.34,2.83,2.83,0,0,1,1.2.36,11.76,11.76,0,0,1,3.34-5.92A8,8,0,0,1,366.81,97.73Zm-1.52,9.84a8.73,8.73,0,0,0,4.32-.92,2.78,2.78,0,0,0,1.62-2.48,3.83,3.83,0,0,0-1.06-2.7,3.92,3.92,0,0,0-3-1.14,5.76,5.76,0,0,0-4.44,2,9.45,9.45,0,0,0-2.32,4.62A17.51,17.51,0,0,0,365.29,107.57Z"/><path d="M385.19,115.13q.36,0,2.6-7.6t2.48-8.16a1.89,1.89,0,0,1,1.78-1.44,1.75,1.75,0,0,1,1.7,1.4q.44,1.36,1.2,4.2t1.12,4.08q2.2,7.52,2.58,7.52t2.62-7.48q.52-1.72,1.32-4.68t1-3.48q.48-1.56,1.48-1.56a1.51,1.51,0,0,1,1,.36,1.1,1.1,0,0,1,.42.86,4,4,0,0,1-.1.92q-.1.42-.36,1.2t-.54,1.66q-.28.88-.82,2.46t-1.86,5.74q-1.32,4.16-2.08,6.08a2.19,2.19,0,0,1-2.2,1.52q-1.6,0-2.32-2.08-1.44-4.16-2.76-8.78t-1.64-4.62q-.28,0-.74,1.58l-.72,2.48q-.26.9-.34,1.22a70,70,0,0,1-2.88,8.8,2.29,2.29,0,0,1-2.2,1.4q-1.52,0-2.28-2.2-.28-.8-1.14-3.44t-1.4-4.26q-.54-1.62-1.08-3.14l-.86-2.4q-.32-.88-.6-1.72a8.28,8.28,0,0,1-.52-2.2,1.37,1.37,0,0,1,.42-1,1.43,1.43,0,0,1,1-.4q1.16,0,1.6,1.4.16.48,1.06,3.5t1.28,4.24l.78,2.5q.4,1.28.66,2.08t.58,1.72Q385,115.13,385.19,115.13Z"/><path d="M420.35,110.73l0-1.52v-.64a48.45,48.45,0,0,0-.36-4.92q-.36-3.24-.36-3.94a2,2,0,0,1,.42-1.24,1.47,1.47,0,0,1,2.28,0,1.93,1.93,0,0,1,.42,1.22q0,.68,0,1.7t0,1.7a12.73,12.73,0,0,1,3-3.8A6.42,6.42,0,0,1,430,97.93a6.5,6.5,0,0,1,4.48,1.68,9.54,9.54,0,0,1,2.68,3.88,12.8,12.8,0,0,1,.8,4.4,11.67,11.67,0,0,1-2.64,7.6,8.34,8.34,0,0,1-6.76,3.24,9.46,9.46,0,0,1-5.68-2q-.08,4.84-.08,7.18a6.67,6.67,0,0,1-.4,3,1.37,1.37,0,0,1-1.24.62,1.67,1.67,0,0,1-1.38-.7,3.25,3.25,0,0,1-.54-2q0-1.32.16-3.14t.48-4.8q.32-3,.52-5.38Zm12.66,3a8.46,8.46,0,0,0,1.94-5.54,10.13,10.13,0,0,0-1.4-5.44,4.29,4.29,0,0,0-3.8-2.26q-4.2,0-6.92,6.92v6.36a7.9,7.9,0,0,0,5.68,2.32A5.71,5.71,0,0,0,433,113.77Z"/><path d="M458.47,108.65a22.33,22.33,0,0,0,.44,4.9q.44,1.9,1,2.14a1.74,1.74,0,0,0,.58.16,1.38,1.38,0,0,1,.48.12.34.34,0,0,1,.14.32,2.62,2.62,0,0,1-.58,1.76,2.16,2.16,0,0,1-1.74.68q-1.16,0-1.8-1.48a9.63,9.63,0,0,1-.64-3.8,9.77,9.77,0,0,1-2.94,3.76,6.89,6.89,0,0,1-4.36,1.52,6,6,0,0,1-4.18-1.6q-3.2-2.92-3.2-8.36a12,12,0,0,1,2.52-7.6,7.85,7.85,0,0,1,6.48-3.24,7.39,7.39,0,0,1,5.2,2q0-2,1.52-2,1.84,0,1.84,2.82A54.44,54.44,0,0,1,458.47,108.65Zm-2.32.36-.2-6.16a7.2,7.2,0,0,0-5-2.32,5.6,5.6,0,0,0-4.5,2.36,8.8,8.8,0,0,0-1.88,5.66,10.87,10.87,0,0,0,1.22,5.44,3.8,3.8,0,0,0,3.46,2.14,5.46,5.46,0,0,0,4.08-2A13.55,13.55,0,0,0,456.15,109Z"/><path d="M478.71,99.81q.08-1.88,1.52-1.88,1.84,0,1.84,2.82a54.38,54.38,0,0,1-.8,7.9q.48,4.88.48,7.28a13.39,13.39,0,0,1-2.46,8.42,8.22,8.22,0,0,1-6.9,3.18,11,11,0,0,1-4.68-1q-2.2-1-2.2-2t.92-1a8.69,8.69,0,0,1,2.06.74,9.69,9.69,0,0,0,3.9.74,6,6,0,0,0,5-2.4,9.91,9.91,0,0,0,1.84-6.2,19.35,19.35,0,0,0-.2-2.88,9,9,0,0,1-2.86,3.72,6.53,6.53,0,0,1-4.08,1.56,6.65,6.65,0,0,1-3.58-.92,7.36,7.36,0,0,1-2.4-2.4,13.3,13.3,0,0,1-1.8-7,11.08,11.08,0,0,1,2.7-7.24,8.33,8.33,0,0,1,6.66-3.26A7.59,7.59,0,0,1,478.71,99.81Zm.08,9.16v-6.12a6.6,6.6,0,0,0-4.86-2.32,5.89,5.89,0,0,0-4.64,2.38,8.54,8.54,0,0,0-2,5.64,10.75,10.75,0,0,0,1.24,5.42,3.8,3.8,0,0,0,3.42,2.16,5.37,5.37,0,0,0,4-2A13.53,13.53,0,0,0,478.79,109Z"/><path d="M497.13,97.73a7.58,7.58,0,0,1,5.24,1.8,6,6,0,0,1,2,4.68,4.81,4.81,0,0,1-2.5,4.38,11.74,11.74,0,0,1-6.14,1.5,26.63,26.63,0,0,1-5.08-.6,7.92,7.92,0,0,0,2.1,4.82,5.54,5.54,0,0,0,4.14,2,8.05,8.05,0,0,0,2.52-.38,6.4,6.4,0,0,0,1.76-.82,5.31,5.31,0,0,1,2.1-1.24,1.08,1.08,0,0,1,.8.3,1,1,0,0,1,.3.74q0,1.12-2.3,2.56a9.21,9.21,0,0,1-5,1.44,8.15,8.15,0,0,1-6.6-2.92,11.53,11.53,0,0,1-2.64-7q-2.12-.64-2.12-2.08a1.27,1.27,0,0,1,.34-.94,1.12,1.12,0,0,1,.82-.34,2.83,2.83,0,0,1,1.2.36,11.76,11.76,0,0,1,3.34-5.92A8,8,0,0,1,497.13,97.73Zm-1.52,9.84a8.73,8.73,0,0,0,4.32-.92,2.78,2.78,0,0,0,1.62-2.48,3.83,3.83,0,0,0-1.06-2.7,3.92,3.92,0,0,0-3-1.14,5.76,5.76,0,0,0-4.44,2,9.45,9.45,0,0,0-2.32,4.62A17.51,17.51,0,0,0,495.61,107.57Z"/><path d="M536.07,107.89a12,12,0,0,1-2.52,7.6,7.85,7.85,0,0,1-6.48,3.24,7.39,7.39,0,0,1-5.2-2q0,2-1.52,2-1.84,0-1.84-2.82a54.3,54.3,0,0,1,.8-7.9q0-2.72-.36-10.26t-.36-8.14a1.83,1.83,0,0,1,.42-1.14,1.47,1.47,0,0,1,2.28,0,2.32,2.32,0,0,1,.42,1.46v12.64a9.5,9.5,0,0,1,2.9-3.34,7,7,0,0,1,4.16-1.3,5.77,5.77,0,0,1,4.06,1.6Q536.07,102.45,536.07,107.89Zm-9.22,8.24a5.6,5.6,0,0,0,4.5-2.36,8.81,8.81,0,0,0,1.88-5.66,10.88,10.88,0,0,0-1.22-5.44,3.8,3.8,0,0,0-3.46-2.14,5.46,5.46,0,0,0-4.08,2,13.54,13.54,0,0,0-2.84,5.12l.2,6.16A7.2,7.2,0,0,0,526.85,116.13Z"/><path d="M554.71,108.65l-.12-8.68q0-2,1.52-2,1.84,0,1.84,3a56.78,56.78,0,0,1-.84,7.72q.48,4.88.48,7.28a13,13,0,0,1-2.56,8.42,8.72,8.72,0,0,1-7.2,3.18,11,11,0,0,1-4.68-1q-2.2-1-2.2-2t.92-1a9.62,9.62,0,0,1,2.22.74,9.84,9.84,0,0,0,3.74.74,6.51,6.51,0,0,0,5.32-2.4,9.49,9.49,0,0,0,2-6.2q0-1.4-.12-2.72-3,5.12-7.44,5.12a5.81,5.81,0,0,1-5-2.38,9.51,9.51,0,0,1-1.76-5.82l.24-6a13.17,13.17,0,0,0-.32-3,10.09,10.09,0,0,1-.32-2,1.56,1.56,0,0,1,.48-1.1,1.64,1.64,0,0,1,1.24-.5q1.84,0,1.84,3.28l-.32,8.8a7.69,7.69,0,0,0,1.16,4.42,3.69,3.69,0,0,0,3.22,1.7q2.06,0,4-2.3A13.28,13.28,0,0,0,554.71,108.65Z"/><path d="M591.39,115.77q1,0,1,.6a2.79,2.79,0,0,1-.54,1.56,1.91,1.91,0,0,1-1.7.8,2,2,0,0,1-1.82-1.28,12.05,12.05,0,0,1-.94-4.08q-2.92,5.36-7.4,5.36a6.5,6.5,0,0,1-4.48-1.68,9.53,9.53,0,0,1-2.68-3.88,12.79,12.79,0,0,1-.8-4.4,11.67,11.67,0,0,1,2.64-7.6,8.33,8.33,0,0,1,6.76-3.24,9.46,9.46,0,0,1,5.68,2q.08-5.56.08-8.14a7.87,7.87,0,0,1,.38-3.2,1.34,1.34,0,0,1,1.24-.62,1.69,1.69,0,0,1,1.4.7,3.33,3.33,0,0,1,.54,2.06q0,1.36-.16,3.34t-.48,5.24q-.32,3.26-.52,5.9a62.58,62.58,0,0,0,.36,7.64Q590.35,115.57,591.39,115.77Zm-4.24-6.56v-6.36a7.9,7.9,0,0,0-5.68-2.32,5.71,5.71,0,0,0-4.5,2.36,8.46,8.46,0,0,0-1.94,5.54,10.12,10.12,0,0,0,1.4,5.44,4.29,4.29,0,0,0,3.8,2.26Q584.43,116.13,587.15,109.21Z"/><path d="M599.67,109.17l.12,7.52q0,2-1.52,2-1.84,0-1.84-2.82a54.3,54.3,0,0,1,.8-7.9,42.33,42.33,0,0,0-.34-4.6q-.34-2.92-.34-3.64a2.08,2.08,0,0,1,.42-1.28,1.44,1.44,0,0,1,2.28,0,2,2,0,0,1,.42,1.22q0,.66,0,1.68t0,1.7a9.6,9.6,0,0,1,2.5-3.6,5.17,5.17,0,0,1,3.5-1.56,4.54,4.54,0,0,1,2.78.74,2,2,0,0,1,1,1.58,1.88,1.88,0,0,1-.44,1.32,1.48,1.48,0,0,1-1.14.48,2.37,2.37,0,0,1-1.52-.74,2.31,2.31,0,0,0-1.3-.74q-1.32,0-3.08,2.84A15.76,15.76,0,0,0,599.67,109.17Z"/><path d="M628.27,108.65a22.33,22.33,0,0,0,.44,4.9q.44,1.9,1,2.14a1.74,1.74,0,0,0,.58.16,1.38,1.38,0,0,1,.48.12.34.34,0,0,1,.14.32,2.62,2.62,0,0,1-.58,1.76,2.16,2.16,0,0,1-1.74.68q-1.16,0-1.8-1.48a9.63,9.63,0,0,1-.64-3.8,9.77,9.77,0,0,1-2.94,3.76,6.89,6.89,0,0,1-4.36,1.52,6,6,0,0,1-4.18-1.6q-3.2-2.92-3.2-8.36a12,12,0,0,1,2.52-7.6,7.85,7.85,0,0,1,6.48-3.24,7.39,7.39,0,0,1,5.2,2q0-2,1.52-2,1.84,0,1.84,2.82A54.44,54.44,0,0,1,628.27,108.65Zm-2.32.36-.2-6.16a7.2,7.2,0,0,0-5-2.32,5.6,5.6,0,0,0-4.5,2.36,8.8,8.8,0,0,0-1.88,5.66,10.87,10.87,0,0,0,1.22,5.44,3.8,3.8,0,0,0,3.46,2.14,5.46,5.46,0,0,0,4.08-2A13.55,13.55,0,0,0,625.95,109Z"/><path d="M648.51,99.81q.08-1.88,1.52-1.88,1.84,0,1.84,2.82a54.38,54.38,0,0,1-.8,7.9q.48,4.88.48,7.28a13.39,13.39,0,0,1-2.46,8.42,8.22,8.22,0,0,1-6.9,3.18,11,11,0,0,1-4.68-1q-2.2-1-2.2-2t.92-1a8.69,8.69,0,0,1,2.06.74,9.69,9.69,0,0,0,3.9.74,6,6,0,0,0,5-2.4,9.91,9.91,0,0,0,1.84-6.2,19.35,19.35,0,0,0-.2-2.88,9,9,0,0,1-2.86,3.72,6.53,6.53,0,0,1-4.08,1.56,6.65,6.65,0,0,1-3.58-.92,7.36,7.36,0,0,1-2.4-2.4,13.3,13.3,0,0,1-1.8-7,11.08,11.08,0,0,1,2.7-7.24,8.33,8.33,0,0,1,6.66-3.26A7.59,7.59,0,0,1,648.51,99.81Zm.08,9.16v-6.12a6.6,6.6,0,0,0-4.86-2.32,5.89,5.89,0,0,0-4.64,2.38,8.54,8.54,0,0,0-2,5.64,10.75,10.75,0,0,0,1.24,5.42,3.8,3.8,0,0,0,3.42,2.16,5.37,5.37,0,0,0,4-2A13.53,13.53,0,0,0,648.59,109Z"/><path d="M670.83,99.81q.08-1.88,1.52-1.88,1.84,0,1.84,2.82a54.38,54.38,0,0,1-.8,7.9q.48,4.88.48,7.28a13.39,13.39,0,0,1-2.46,8.42,8.22,8.22,0,0,1-6.9,3.18,11,11,0,0,1-4.68-1q-2.2-1-2.2-2t.92-1a8.69,8.69,0,0,1,2.06.74,9.69,9.69,0,0,0,3.9.74,6,6,0,0,0,5-2.4,9.91,9.91,0,0,0,1.84-6.2,19.35,19.35,0,0,0-.2-2.88,9,9,0,0,1-2.86,3.72,6.53,6.53,0,0,1-4.08,1.56,6.65,6.65,0,0,1-3.58-.92,7.36,7.36,0,0,1-2.4-2.4,13.3,13.3,0,0,1-1.8-7,11.08,11.08,0,0,1,2.7-7.24,8.33,8.33,0,0,1,6.66-3.26A7.59,7.59,0,0,1,670.83,99.81Zm.08,9.16v-6.12a6.6,6.6,0,0,0-4.86-2.32,5.89,5.89,0,0,0-4.64,2.38,8.54,8.54,0,0,0-2,5.64,10.75,10.75,0,0,0,1.24,5.42,3.8,3.8,0,0,0,3.42,2.16,5.37,5.37,0,0,0,4-2A13.53,13.53,0,0,0,670.91,109Z"/><path d="M681.59,89.33a1.44,1.44,0,0,1,1.24.54,2.23,2.23,0,0,1,.4,1.36,2.89,2.89,0,0,1-.56,1.64,1.65,1.65,0,0,1-1.4.82,1.47,1.47,0,0,1-1.26-.56,2.4,2.4,0,0,1-.42-1.48,2.46,2.46,0,0,1,.58-1.62A1.78,1.78,0,0,1,681.59,89.33Zm1.12,19,.2,8.4q0,2-1.52,2t-1.52-2l.2-8.4-.2-8.4q0-2,1.52-2t1.52,2Z"/><path d="M705.71,105.73l-.2,6.28q0,1.12,0,1.7a4,4,0,0,0,.24,1.2,1.21,1.21,0,0,0,.54.76,2.29,2.29,0,0,0,.66.18,1.38,1.38,0,0,1,.48.12.34.34,0,0,1,.14.32,2.44,2.44,0,0,1-.66,1.74,2.06,2.06,0,0,1-1.54.7,2.12,2.12,0,0,1-2.1-1.2,8.36,8.36,0,0,1-.58-3.52l.16-7.36a7.6,7.6,0,0,0-1.16-4.4,3.7,3.7,0,0,0-3.22-1.68,5.33,5.33,0,0,0-4,2.28,13.1,13.1,0,0,0-2.68,5.16l.12,8.68q0,2-1.52,2-1.84,0-1.84-2.82a54.3,54.3,0,0,1,.8-7.9,43.4,43.4,0,0,0-.34-4.64q-.34-3-.34-3.66a2,2,0,0,1,.42-1.24,1.47,1.47,0,0,1,2.28,0,1.94,1.94,0,0,1,.42,1.22q0,.68,0,1.66t0,1.66q2.92-5.08,7.2-5.08a5.9,5.9,0,0,1,5,2.28A8.77,8.77,0,0,1,705.71,105.73Z"/><path d="M725.27,99.81q.08-1.88,1.52-1.88,1.84,0,1.84,2.82a54.38,54.38,0,0,1-.8,7.9q.48,4.88.48,7.28a13.39,13.39,0,0,1-2.46,8.42,8.22,8.22,0,0,1-6.9,3.18,11,11,0,0,1-4.68-1q-2.2-1-2.2-2t.92-1a8.69,8.69,0,0,1,2.06.74,9.69,9.69,0,0,0,3.9.74,6,6,0,0,0,5-2.4,9.91,9.91,0,0,0,1.84-6.2,19.35,19.35,0,0,0-.2-2.88,9,9,0,0,1-2.86,3.72,6.53,6.53,0,0,1-4.08,1.56,6.65,6.65,0,0,1-3.58-.92,7.36,7.36,0,0,1-2.4-2.4,13.3,13.3,0,0,1-1.8-7,11.08,11.08,0,0,1,2.7-7.24,8.33,8.33,0,0,1,6.66-3.26A7.59,7.59,0,0,1,725.27,99.81Zm.08,9.16v-6.12a6.6,6.6,0,0,0-4.86-2.32,5.89,5.89,0,0,0-4.64,2.38,8.54,8.54,0,0,0-2,5.64,10.75,10.75,0,0,0,1.24,5.42,3.8,3.8,0,0,0,3.42,2.16,5.37,5.37,0,0,0,4-2A13.53,13.53,0,0,0,725.35,109Z"/><path d="M356,145.73a7.58,7.58,0,0,1,5.24,1.8,6,6,0,0,1,2,4.68,4.81,4.81,0,0,1-2.5,4.38,11.74,11.74,0,0,1-6.14,1.5,26.63,26.63,0,0,1-5.08-.6,7.92,7.92,0,0,0,2.1,4.82,5.54,5.54,0,0,0,4.14,2,8.05,8.05,0,0,0,2.52-.38,6.4,6.4,0,0,0,1.76-.82,5.31,5.31,0,0,1,2.1-1.24,1.08,1.08,0,0,1,.8.3,1,1,0,0,1,.3.74q0,1.12-2.3,2.56a9.21,9.21,0,0,1-5,1.44,8.15,8.15,0,0,1-6.6-2.92,11.53,11.53,0,0,1-2.64-7q-2.12-.64-2.12-2.08a1.27,1.27,0,0,1,.34-.94,1.12,1.12,0,0,1,.82-.34,2.83,2.83,0,0,1,1.2.36,11.76,11.76,0,0,1,3.34-5.92A8,8,0,0,1,356,145.73Zm-1.52,9.84a8.73,8.73,0,0,0,4.32-.92,2.78,2.78,0,0,0,1.62-2.48,3.83,3.83,0,0,0-1.06-2.7,3.92,3.92,0,0,0-3-1.14,5.76,5.76,0,0,0-4.44,2,9.45,9.45,0,0,0-2.32,4.62A17.51,17.51,0,0,0,354.47,155.57Z"/><path d="M371,151.33l.2,13.4q0,2-1.52,2t-1.52-2l.2-13.4-.2-13.4q0-2,1.52-2t1.52,2Z"/><path d="M386.51,145.73a7.58,7.58,0,0,1,5.24,1.8,6,6,0,0,1,2,4.68,4.81,4.81,0,0,1-2.5,4.38,11.74,11.74,0,0,1-6.14,1.5,26.63,26.63,0,0,1-5.08-.6,7.92,7.92,0,0,0,2.1,4.82,5.54,5.54,0,0,0,4.14,2,8.05,8.05,0,0,0,2.52-.38,6.4,6.4,0,0,0,1.76-.82,5.31,5.31,0,0,1,2.1-1.24,1.08,1.08,0,0,1,.8.3,1,1,0,0,1,.3.74q0,1.12-2.3,2.56a9.21,9.21,0,0,1-5,1.44,8.15,8.15,0,0,1-6.6-2.92,11.53,11.53,0,0,1-2.64-7q-2.12-.64-2.12-2.08a1.27,1.27,0,0,1,.34-.94,1.12,1.12,0,0,1,.82-.34,2.83,2.83,0,0,1,1.2.36,11.76,11.76,0,0,1,3.34-5.92A8,8,0,0,1,386.51,145.73ZM385,155.57a8.73,8.73,0,0,0,4.32-.92,2.78,2.78,0,0,0,1.62-2.48,3.83,3.83,0,0,0-1.06-2.7,3.92,3.92,0,0,0-3-1.14,5.76,5.76,0,0,0-4.44,2,9.45,9.45,0,0,0-2.32,4.62A17.51,17.51,0,0,0,385,155.57Z"/><path d="M427.49,153.73l-.2,6.28q0,1.12,0,1.7a4,4,0,0,0,.24,1.2,1.21,1.21,0,0,0,.54.76,2.29,2.29,0,0,0,.66.18,1.38,1.38,0,0,1,.48.12.34.34,0,0,1,.14.32,2.44,2.44,0,0,1-.66,1.74,2.06,2.06,0,0,1-1.54.7,2.12,2.12,0,0,1-2.1-1.2,8.36,8.36,0,0,1-.58-3.52l.16-7.36a8.14,8.14,0,0,0-1.06-4.4,3.32,3.32,0,0,0-3-1.68q-1.9,0-3.7,2.28a13.51,13.51,0,0,0-2.52,5.16l.12,8.68q0,2-1.52,2-1.84,0-1.84-2.82a54.25,54.25,0,0,1,.8-7.9q0-7.44-4.08-7.44-1.88,0-3.68,2.28a13.51,13.51,0,0,0-2.52,5.16l.12,8.68q0,2-1.52,2-1.84,0-1.84-2.82a54.3,54.3,0,0,1,.8-7.9,43.4,43.4,0,0,0-.34-4.64q-.34-3-.34-3.66a2,2,0,0,1,.42-1.24,1.47,1.47,0,0,1,2.28,0,1.94,1.94,0,0,1,.42,1.22q0,.68,0,1.66t0,1.66q2.72-5.08,6.8-5.08a5.48,5.48,0,0,1,3.86,1.38,7.17,7.17,0,0,1,2.06,3.7q2.72-5.08,6.8-5.08a5.43,5.43,0,0,1,4.66,2.28A9.13,9.13,0,0,1,427.49,153.73Z"/><path d="M443.15,145.73a7.58,7.58,0,0,1,5.24,1.8,6,6,0,0,1,2,4.68,4.81,4.81,0,0,1-2.5,4.38,11.74,11.74,0,0,1-6.14,1.5,26.63,26.63,0,0,1-5.08-.6,7.92,7.92,0,0,0,2.1,4.82,5.54,5.54,0,0,0,4.14,2,8.05,8.05,0,0,0,2.52-.38,6.4,6.4,0,0,0,1.76-.82,5.31,5.31,0,0,1,2.1-1.24,1.08,1.08,0,0,1,.8.3,1,1,0,0,1,.3.74q0,1.12-2.3,2.56a9.21,9.21,0,0,1-5,1.44,8.15,8.15,0,0,1-6.6-2.92,11.53,11.53,0,0,1-2.64-7q-2.12-.64-2.12-2.08a1.27,1.27,0,0,1,.34-.94,1.12,1.12,0,0,1,.82-.34,2.83,2.83,0,0,1,1.2.36,11.76,11.76,0,0,1,3.34-5.92A8,8,0,0,1,443.15,145.73Zm-1.52,9.84a8.73,8.73,0,0,0,4.32-.92,2.78,2.78,0,0,0,1.62-2.48,3.83,3.83,0,0,0-1.06-2.7,3.92,3.92,0,0,0-3-1.14,5.76,5.76,0,0,0-4.44,2,9.45,9.45,0,0,0-2.32,4.62A17.51,17.51,0,0,0,441.63,155.57Z"/><path d="M472.21,153.73,472,160q0,1.12,0,1.7a4,4,0,0,0,.24,1.2,1.21,1.21,0,0,0,.54.76,2.29,2.29,0,0,0,.66.18,1.38,1.38,0,0,1,.48.12.34.34,0,0,1,.14.32,2.44,2.44,0,0,1-.66,1.74,2.06,2.06,0,0,1-1.54.7,2.12,2.12,0,0,1-2.1-1.2,8.36,8.36,0,0,1-.58-3.52l.16-7.36a7.6,7.6,0,0,0-1.16-4.4,3.7,3.7,0,0,0-3.22-1.68,5.33,5.33,0,0,0-4,2.28,13.1,13.1,0,0,0-2.68,5.16l.12,8.68q0,2-1.52,2-1.84,0-1.84-2.82a54.3,54.3,0,0,1,.8-7.9,43.4,43.4,0,0,0-.34-4.64q-.34-3-.34-3.66a2,2,0,0,1,.42-1.24,1.47,1.47,0,0,1,2.28,0,1.94,1.94,0,0,1,.42,1.22q0,.68,0,1.66t0,1.66q2.92-5.08,7.2-5.08a5.9,5.9,0,0,1,5,2.28A8.77,8.77,0,0,1,472.21,153.73Z"/><path d="M482.49,148.77l-.08,9.48a23.2,23.2,0,0,0,.3,4.76,1.45,1.45,0,0,0,1.58,1.12,3.47,3.47,0,0,0,1.46-.42,3.54,3.54,0,0,1,1.14-.42.73.73,0,0,1,.84.82q0,.82-1.48,1.72a5.6,5.6,0,0,1-2.92.9q-3.48,0-3.48-5.12l0-12.84q-1.32.12-1.84.12-2,0-2-1.32t2-1.32l1.76.08-.08-4.48q0-2,1.52-2t1.52,2l-.12,4.52,3.24-.16q2,0,2,1.36t-2,1.28Z"/><path d="M505.17,146.33l3.88-.08a1.79,1.79,0,0,1,1.08.32,1.11,1.11,0,0,1,.44,1q0,1.2-1.52,1.2l-3.88-.08v2.68q0,5.52.12,9.28t.12,4.38a1.93,1.93,0,0,1-.42,1.18,1.44,1.44,0,0,1-2.28,0,1.93,1.93,0,0,1-.42-1.18q0-.62,0-2.5.2-5.64.2-11.16v-2.68l-2,.08q-1.52,0-1.52-1.2a1.11,1.11,0,0,1,.44-1,1.78,1.78,0,0,1,1.08-.32l2,.08v-3.4q0-3.72,1.46-5.36a4.41,4.41,0,0,1,3.38-1.64,6.2,6.2,0,0,1,3.18.74q1.26.74,1.26,1.58,0,1.32-1.12,1.32a3,3,0,0,1-1.36-.48,3.3,3.3,0,0,0-1.64-.48q-2.48,0-2.48,4.68Z"/><path d="M517.21,157.17l.12,7.52q0,2-1.52,2-1.84,0-1.84-2.82a54.3,54.3,0,0,1,.8-7.9,42.33,42.33,0,0,0-.34-4.6q-.34-2.92-.34-3.64a2.08,2.08,0,0,1,.42-1.28,1.44,1.44,0,0,1,2.28,0,2,2,0,0,1,.42,1.22q0,.66,0,1.68t0,1.7a9.6,9.6,0,0,1,2.5-3.6,5.17,5.17,0,0,1,3.5-1.56,4.54,4.54,0,0,1,2.78.74,2,2,0,0,1,1,1.58,1.88,1.88,0,0,1-.44,1.32,1.48,1.48,0,0,1-1.14.48,2.37,2.37,0,0,1-1.52-.74,2.31,2.31,0,0,0-1.3-.74q-1.32,0-3.08,2.84A15.76,15.76,0,0,0,517.21,157.17Z"/><path d="M538.47,145.73a8.51,8.51,0,0,1,6.74,3.06,12,12,0,0,1,0,15,8.91,8.91,0,0,1-13.48,0,12,12,0,0,1,0-15A8.52,8.52,0,0,1,538.47,145.73Zm4.6,16.24a9.38,9.38,0,0,0,.08-11.32,5.7,5.7,0,0,0-4.62-2.32,5.89,5.89,0,0,0-4.7,2.36,9.38,9.38,0,0,0-.08,11.32,5.7,5.7,0,0,0,4.62,2.32A5.89,5.89,0,0,0,543.07,162Z"/><path d="M581.45,153.73l-.2,6.28q0,1.12,0,1.7a4,4,0,0,0,.24,1.2,1.21,1.21,0,0,0,.54.76,2.29,2.29,0,0,0,.66.18,1.38,1.38,0,0,1,.48.12.34.34,0,0,1,.14.32,2.44,2.44,0,0,1-.66,1.74,2.06,2.06,0,0,1-1.54.7,2.12,2.12,0,0,1-2.1-1.2,8.36,8.36,0,0,1-.58-3.52l.16-7.36a8.14,8.14,0,0,0-1.06-4.4,3.32,3.32,0,0,0-3-1.68q-1.9,0-3.7,2.28a13.51,13.51,0,0,0-2.52,5.16l.12,8.68q0,2-1.52,2-1.84,0-1.84-2.82a54.25,54.25,0,0,1,.8-7.9q0-7.44-4.08-7.44-1.88,0-3.68,2.28a13.51,13.51,0,0,0-2.52,5.16l.12,8.68q0,2-1.52,2-1.84,0-1.84-2.82a54.3,54.3,0,0,1,.8-7.9,43.4,43.4,0,0,0-.34-4.64q-.34-3-.34-3.66a2,2,0,0,1,.42-1.24,1.47,1.47,0,0,1,2.28,0,1.94,1.94,0,0,1,.42,1.22q0,.68,0,1.66t0,1.66q2.72-5.08,6.8-5.08a5.48,5.48,0,0,1,3.86,1.38,7.17,7.17,0,0,1,2.06,3.7q2.72-5.08,6.8-5.08a5.43,5.43,0,0,1,4.66,2.28A9.13,9.13,0,0,1,581.45,153.73Z"/><path d="M601.61,148.77l-.08,9.48a23.2,23.2,0,0,0,.3,4.76,1.45,1.45,0,0,0,1.58,1.12,3.47,3.47,0,0,0,1.46-.42,3.54,3.54,0,0,1,1.14-.42.73.73,0,0,1,.84.82q0,.82-1.48,1.72a5.6,5.6,0,0,1-2.92.9q-3.48,0-3.48-5.12l0-12.84q-1.32.12-1.84.12-2,0-2-1.32t2-1.32l1.76.08-.08-4.48q0-2,1.52-2t1.52,2l-.12,4.52,3.24-.16q2,0,2,1.36t-2,1.28Z"/><path d="M627.53,153.73l-.2,6.28q0,1.12,0,1.7a4,4,0,0,0,.24,1.2,1.21,1.21,0,0,0,.54.76,2.29,2.29,0,0,0,.66.18,1.38,1.38,0,0,1,.48.12.34.34,0,0,1,.14.32,2.44,2.44,0,0,1-.66,1.74,2.06,2.06,0,0,1-1.54.7,2.12,2.12,0,0,1-2.1-1.2,8.36,8.36,0,0,1-.58-3.52l.16-7.36a7.6,7.6,0,0,0-1.16-4.4,3.7,3.7,0,0,0-3.22-1.68,5.33,5.33,0,0,0-4,2.28,13.1,13.1,0,0,0-2.68,5.16l.12,8.68q0,2-1.52,2-1.84,0-1.84-2.82a54.3,54.3,0,0,1,.8-7.9q0-2.72-.36-10.26t-.36-8.14a1.83,1.83,0,0,1,.42-1.14,1.47,1.47,0,0,1,2.28,0,2.32,2.32,0,0,1,.42,1.46V151q2.92-5.08,7.2-5.08a5.9,5.9,0,0,1,5,2.28A8.76,8.76,0,0,1,627.53,153.73Z"/><path d="M643.19,145.73a7.58,7.58,0,0,1,5.24,1.8,6,6,0,0,1,2,4.68,4.81,4.81,0,0,1-2.5,4.38,11.74,11.74,0,0,1-6.14,1.5,26.63,26.63,0,0,1-5.08-.6,7.92,7.92,0,0,0,2.1,4.82,5.54,5.54,0,0,0,4.14,2,8.05,8.05,0,0,0,2.52-.38,6.4,6.4,0,0,0,1.76-.82,5.31,5.31,0,0,1,2.1-1.24,1.08,1.08,0,0,1,.8.3,1,1,0,0,1,.3.74q0,1.12-2.3,2.56a9.21,9.21,0,0,1-5,1.44,8.15,8.15,0,0,1-6.6-2.92,11.53,11.53,0,0,1-2.64-7q-2.12-.64-2.12-2.08a1.27,1.27,0,0,1,.34-.94,1.12,1.12,0,0,1,.82-.34,2.83,2.83,0,0,1,1.2.36,11.76,11.76,0,0,1,3.34-5.92A8,8,0,0,1,643.19,145.73Zm-1.52,9.84a8.73,8.73,0,0,0,4.32-.92,2.78,2.78,0,0,0,1.62-2.48,3.83,3.83,0,0,0-1.06-2.7,3.92,3.92,0,0,0-3-1.14,5.76,5.76,0,0,0-4.44,2,9.45,9.45,0,0,0-2.32,4.62A17.51,17.51,0,0,0,641.67,155.57Z"/><path d="M667.73,151.33l.2,13.4q0,2-1.52,2t-1.52-2l.2-13.4-.2-13.4q0-2,1.52-2t1.52,2Z"/><path d="M683.23,145.73a7.58,7.58,0,0,1,5.24,1.8,6,6,0,0,1,2,4.68,4.81,4.81,0,0,1-2.5,4.38,11.74,11.74,0,0,1-6.14,1.5,26.63,26.63,0,0,1-5.08-.6,7.92,7.92,0,0,0,2.1,4.82,5.54,5.54,0,0,0,4.14,2,8.05,8.05,0,0,0,2.52-.38,6.4,6.4,0,0,0,1.76-.82,5.31,5.31,0,0,1,2.1-1.24,1.08,1.08,0,0,1,.8.3,1,1,0,0,1,.3.74q0,1.12-2.3,2.56a9.21,9.21,0,0,1-5,1.44,8.15,8.15,0,0,1-6.6-2.92,11.53,11.53,0,0,1-2.64-7q-2.12-.64-2.12-2.08a1.27,1.27,0,0,1,.34-.94,1.12,1.12,0,0,1,.82-.34,2.83,2.83,0,0,1,1.2.36,11.76,11.76,0,0,1,3.34-5.92A8,8,0,0,1,683.23,145.73Zm-1.52,9.84a8.73,8.73,0,0,0,4.32-.92,2.78,2.78,0,0,0,1.62-2.48,3.83,3.83,0,0,0-1.06-2.7,3.92,3.92,0,0,0-3-1.14,5.76,5.76,0,0,0-4.44,2,9.45,9.45,0,0,0-2.32,4.62A17.51,17.51,0,0,0,681.71,155.57Z"/><path d="M699.45,146.33l3.88-.08a1.79,1.79,0,0,1,1.08.32,1.11,1.11,0,0,1,.44,1q0,1.2-1.52,1.2l-3.88-.08v2.68q0,5.52.12,9.28t.12,4.38a1.93,1.93,0,0,1-.42,1.18,1.44,1.44,0,0,1-2.28,0,1.93,1.93,0,0,1-.42-1.18q0-.62,0-2.5.2-5.64.2-11.16v-2.68l-2,.08q-1.52,0-1.52-1.2a1.11,1.11,0,0,1,.44-1,1.78,1.78,0,0,1,1.08-.32l2,.08v-3.4q0-3.72,1.46-5.36a4.41,4.41,0,0,1,3.38-1.64,6.2,6.2,0,0,1,3.18.74q1.26.74,1.26,1.58,0,1.32-1.12,1.32a3,3,0,0,1-1.36-.48,3.3,3.3,0,0,0-1.64-.48q-2.48,0-2.48,4.68Z"/><path d="M712.85,148.77l-.08,9.48a23.2,23.2,0,0,0,.3,4.76,1.45,1.45,0,0,0,1.58,1.12,3.47,3.47,0,0,0,1.46-.42,3.54,3.54,0,0,1,1.14-.42.73.73,0,0,1,.84.82q0,.82-1.48,1.72a5.6,5.6,0,0,1-2.92.9q-3.48,0-3.48-5.12l0-12.84q-1.32.12-1.84.12-2,0-2-1.32t2-1.32l1.76.08-.08-4.48q0-2,1.52-2t1.52,2l-.12,4.52,3.24-.16q2,0,2,1.36t-2,1.28Z"/><path d="M377.35,210.21q1,0,1,1.06T376,213.63a9.85,9.85,0,0,1-4.88,1.3,9,9,0,0,1-7-3.1,11.41,11.41,0,0,1,0-15,9.55,9.55,0,0,1,7.42-3.1,8.64,8.64,0,0,1,4.46,1.14Q378,196,378,197.21a1.48,1.48,0,0,1-.4,1.06,1.24,1.24,0,0,1-.92.42,2,2,0,0,1-1.2-.6,6.55,6.55,0,0,0-4.24-1.76,6.27,6.27,0,0,0-4.82,2.32,8.2,8.2,0,0,0-2.06,5.64,8.3,8.3,0,0,0,2.08,5.68,6.6,6.6,0,0,0,5.16,2.36,7.83,7.83,0,0,0,4.6-1.6A2.4,2.4,0,0,1,377.35,210.21Z"/><path d="M390.77,193.73a8.51,8.51,0,0,1,6.74,3.06,12,12,0,0,1,0,15,8.91,8.91,0,0,1-13.48,0,12,12,0,0,1,0-15A8.52,8.52,0,0,1,390.77,193.73Zm4.6,16.24a9.38,9.38,0,0,0,.08-11.32,5.7,5.7,0,0,0-4.62-2.32,5.89,5.89,0,0,0-4.7,2.36,9.38,9.38,0,0,0-.08,11.32,5.7,5.7,0,0,0,4.62,2.32A5.89,5.89,0,0,0,395.37,210Z"/><path d="M407.79,199.33l.2,13.4q0,2-1.52,2t-1.52-2l.2-13.4-.2-13.4q0-2,1.52-2t1.52,2Z"/><path d="M417,197.21l-.32,8.8a7.69,7.69,0,0,0,1.16,4.42,3.69,3.69,0,0,0,3.22,1.7q2.06,0,4-2.3a13.28,13.28,0,0,0,2.68-5.18l-.12-8.68q0-2,1.52-2,1.84,0,1.84,2.82a54.44,54.44,0,0,1-.8,7.9,22.33,22.33,0,0,0,.44,4.9q.44,1.9,1,2.14a1.74,1.74,0,0,0,.58.16,1.38,1.38,0,0,1,.48.12.34.34,0,0,1,.14.32,2.42,2.42,0,0,1-.66,1.76,2.22,2.22,0,0,1-1.66.68q-2.52,0-2.52-5.12-3,5.12-7.44,5.12a5.81,5.81,0,0,1-5-2.38,9.51,9.51,0,0,1-1.76-5.82l.24-6a13.17,13.17,0,0,0-.32-3,10.09,10.09,0,0,1-.32-2,1.56,1.56,0,0,1,.48-1.1,1.64,1.64,0,0,1,1.24-.5Q417,193.93,417,197.21Z"/><path d="M466.07,201.73l-.2,6.28q0,1.12,0,1.7a4,4,0,0,0,.24,1.2,1.21,1.21,0,0,0,.54.76,2.29,2.29,0,0,0,.66.18,1.38,1.38,0,0,1,.48.12.34.34,0,0,1,.14.32,2.44,2.44,0,0,1-.66,1.74,2.06,2.06,0,0,1-1.54.7,2.12,2.12,0,0,1-2.1-1.2,8.36,8.36,0,0,1-.58-3.52l.16-7.36a8.14,8.14,0,0,0-1.06-4.4,3.32,3.32,0,0,0-3-1.68q-1.9,0-3.7,2.28A13.51,13.51,0,0,0,453,204l.12,8.68q0,2-1.52,2-1.84,0-1.84-2.82a54.25,54.25,0,0,1,.8-7.9q0-7.44-4.08-7.44-1.88,0-3.68,2.28a13.51,13.51,0,0,0-2.52,5.16l.12,8.68q0,2-1.52,2-1.84,0-1.84-2.82a54.3,54.3,0,0,1,.8-7.9,43.4,43.4,0,0,0-.34-4.64q-.34-3-.34-3.66a2,2,0,0,1,.42-1.24,1.47,1.47,0,0,1,2.28,0,1.94,1.94,0,0,1,.42,1.22q0,.68,0,1.66t0,1.66q2.72-5.08,6.8-5.08a5.48,5.48,0,0,1,3.86,1.38A7.17,7.17,0,0,1,453,199q2.72-5.08,6.8-5.08a5.43,5.43,0,0,1,4.66,2.28A9.13,9.13,0,0,1,466.07,201.73Z"/><path d="M489.23,201.73,489,208q0,1.12,0,1.7a4,4,0,0,0,.24,1.2,1.21,1.21,0,0,0,.54.76,2.29,2.29,0,0,0,.66.18,1.38,1.38,0,0,1,.48.12.34.34,0,0,1,.14.32,2.44,2.44,0,0,1-.66,1.74,2.06,2.06,0,0,1-1.54.7,2.12,2.12,0,0,1-2.1-1.2,8.36,8.36,0,0,1-.58-3.52l.16-7.36a7.6,7.6,0,0,0-1.16-4.4,3.7,3.7,0,0,0-3.22-1.68,5.33,5.33,0,0,0-4,2.28,13.1,13.1,0,0,0-2.68,5.16l.12,8.68q0,2-1.52,2-1.84,0-1.84-2.82a54.3,54.3,0,0,1,.8-7.9,43.4,43.4,0,0,0-.34-4.64q-.34-3-.34-3.66a2,2,0,0,1,.42-1.24,1.47,1.47,0,0,1,2.28,0,1.94,1.94,0,0,1,.42,1.22q0,.68,0,1.66t0,1.66q2.92-5.08,7.2-5.08a5.9,5.9,0,0,1,5,2.28A8.77,8.77,0,0,1,489.23,201.73Z"/><path d="M509.39,196.77l-.08,9.48a23.2,23.2,0,0,0,.3,4.76,1.45,1.45,0,0,0,1.58,1.12,3.47,3.47,0,0,0,1.46-.42,3.54,3.54,0,0,1,1.14-.42.73.73,0,0,1,.84.82q0,.82-1.48,1.72a5.6,5.6,0,0,1-2.92.9q-3.48,0-3.48-5.12l0-12.84q-1.32.12-1.84.12-2,0-2-1.32t2-1.32l1.76.08-.08-4.48q0-2,1.52-2t1.52,2l-.12,4.52,3.24-.16q2,0,2,1.36t-2,1.28Z"/><path d="M526.81,193.73a8.51,8.51,0,0,1,6.74,3.06,12,12,0,0,1,0,15,8.91,8.91,0,0,1-13.48,0,12,12,0,0,1,0-15A8.52,8.52,0,0,1,526.81,193.73Zm4.6,16.24a9.38,9.38,0,0,0,.08-11.32,5.7,5.7,0,0,0-4.62-2.32,5.89,5.89,0,0,0-4.7,2.36,9.38,9.38,0,0,0-.08,11.32,5.7,5.7,0,0,0,4.62,2.32A5.89,5.89,0,0,0,531.41,210Z"/><path d="M554.87,196.77l-.08,9.48a23.2,23.2,0,0,0,.3,4.76,1.45,1.45,0,0,0,1.58,1.12,3.47,3.47,0,0,0,1.46-.42,3.54,3.54,0,0,1,1.14-.42.73.73,0,0,1,.84.82q0,.82-1.48,1.72a5.6,5.6,0,0,1-2.92.9q-3.48,0-3.48-5.12l0-12.84q-1.32.12-1.84.12-2,0-2-1.32t2-1.32l1.76.08-.08-4.48q0-2,1.52-2t1.52,2l-.12,4.52,3.24-.16q2,0,2,1.36t-2,1.28Z"/><path d="M580.79,201.73l-.2,6.28q0,1.12,0,1.7a4,4,0,0,0,.24,1.2,1.21,1.21,0,0,0,.54.76,2.29,2.29,0,0,0,.66.18,1.38,1.38,0,0,1,.48.12.34.34,0,0,1,.14.32A2.44,2.44,0,0,1,582,214a2.06,2.06,0,0,1-1.54.7,2.12,2.12,0,0,1-2.1-1.2,8.36,8.36,0,0,1-.58-3.52l.16-7.36a7.6,7.6,0,0,0-1.16-4.4,3.7,3.7,0,0,0-3.22-1.68,5.33,5.33,0,0,0-4,2.28,13.1,13.1,0,0,0-2.68,5.16l.12,8.68q0,2-1.52,2-1.84,0-1.84-2.82a54.3,54.3,0,0,1,.8-7.9q0-2.72-.36-10.26t-.36-8.14a1.83,1.83,0,0,1,.42-1.14,1.47,1.47,0,0,1,2.28,0,2.32,2.32,0,0,1,.42,1.46V199q2.92-5.08,7.2-5.08a5.9,5.9,0,0,1,5,2.28A8.76,8.76,0,0,1,580.79,201.73Z"/><path d="M588.79,185.33a1.44,1.44,0,0,1,1.24.54,2.23,2.23,0,0,1,.4,1.36,2.89,2.89,0,0,1-.56,1.64,1.65,1.65,0,0,1-1.4.82,1.47,1.47,0,0,1-1.26-.56,2.4,2.4,0,0,1-.42-1.48,2.46,2.46,0,0,1,.58-1.62A1.78,1.78,0,0,1,588.79,185.33Zm1.12,19,.2,8.4q0,2-1.52,2t-1.52-2l.2-8.4-.2-8.4q0-2,1.52-2t1.52,2Z"/><path d="M609.71,208.57a5.37,5.37,0,0,1-2.22,4.44,8.43,8.43,0,0,1-5.32,1.72,10,10,0,0,1-5.38-1.42q-2.28-1.42-2.28-2.82a1.37,1.37,0,0,1,.36-1,1.1,1.1,0,0,1,.82-.38,1.35,1.35,0,0,1,.74.18,4.56,4.56,0,0,1,.76.7q.48.52.86.88a5,5,0,0,0,1.56.8,6.26,6.26,0,0,0,2.18.44,6.65,6.65,0,0,0,3.62-.9,2.91,2.91,0,0,0,1.42-2.62q0-2.08-4-3.48-1.64-.56-3.3-1.22a8.21,8.21,0,0,1-2.82-1.82,3.77,3.77,0,0,1-1.16-2.76,4.8,4.8,0,0,1,2-3.78,7.28,7.28,0,0,1,4.8-1.62,8.84,8.84,0,0,1,4.5,1q1.66,1,1.66,2.06,0,1.32-1.4,1.32a2,2,0,0,1-1.2-.44,6.32,6.32,0,0,0-3.6-1.32,4.67,4.67,0,0,0-2.8.78,2.22,2.22,0,0,0-1.08,1.8,2.06,2.06,0,0,0,1.16,1.74,15.08,15.08,0,0,0,2.82,1.32q1.66.6,3.34,1.34a8.17,8.17,0,0,1,2.84,2A4.4,4.4,0,0,1,609.71,208.57Z"/><path d="M639.47,204.65a22.33,22.33,0,0,0,.44,4.9q.44,1.9,1,2.14a1.74,1.74,0,0,0,.58.16,1.38,1.38,0,0,1,.48.12.34.34,0,0,1,.14.32,2.62,2.62,0,0,1-.58,1.76,2.16,2.16,0,0,1-1.74.68q-1.16,0-1.8-1.48a9.63,9.63,0,0,1-.64-3.8,9.77,9.77,0,0,1-2.94,3.76,6.89,6.89,0,0,1-4.36,1.52,6,6,0,0,1-4.18-1.6q-3.2-2.92-3.2-8.36a12,12,0,0,1,2.52-7.6,7.85,7.85,0,0,1,6.48-3.24,7.39,7.39,0,0,1,5.2,2q0-2,1.52-2,1.84,0,1.84,2.82A54.44,54.44,0,0,1,639.47,204.65Zm-2.32.36-.2-6.16a7.2,7.2,0,0,0-5-2.32,5.6,5.6,0,0,0-4.5,2.36,8.8,8.8,0,0,0-1.88,5.66,10.87,10.87,0,0,0,1.22,5.44,3.8,3.8,0,0,0,3.46,2.14,5.46,5.46,0,0,0,4.08-2A13.55,13.55,0,0,0,637.15,205Z"/><path d="M649.59,205.17l.12,7.52q0,2-1.52,2-1.84,0-1.84-2.82a54.3,54.3,0,0,1,.8-7.9,42.33,42.33,0,0,0-.34-4.6q-.34-2.92-.34-3.64a2.08,2.08,0,0,1,.42-1.28,1.44,1.44,0,0,1,2.28,0,2,2,0,0,1,.42,1.22q0,.66,0,1.68t0,1.7a9.6,9.6,0,0,1,2.5-3.6,5.17,5.17,0,0,1,3.5-1.56,4.54,4.54,0,0,1,2.78.74,2,2,0,0,1,1,1.58,1.88,1.88,0,0,1-.44,1.32,1.48,1.48,0,0,1-1.14.48,2.37,2.37,0,0,1-1.52-.74,2.31,2.31,0,0,0-1.3-.74q-1.32,0-3.08,2.84A15.76,15.76,0,0,0,649.59,205.17Z"/><path d="M671.09,193.73a7.58,7.58,0,0,1,5.24,1.8,6,6,0,0,1,2,4.68,4.81,4.81,0,0,1-2.5,4.38,11.74,11.74,0,0,1-6.14,1.5,26.63,26.63,0,0,1-5.08-.6,7.92,7.92,0,0,0,2.1,4.82,5.54,5.54,0,0,0,4.14,2,8.05,8.05,0,0,0,2.52-.38,6.4,6.4,0,0,0,1.76-.82,5.31,5.31,0,0,1,2.1-1.24,1.08,1.08,0,0,1,.8.3,1,1,0,0,1,.3.74q0,1.12-2.3,2.56a9.21,9.21,0,0,1-5,1.44,8.15,8.15,0,0,1-6.6-2.92,11.53,11.53,0,0,1-2.64-7q-2.12-.64-2.12-2.08a1.27,1.27,0,0,1,.34-.94,1.12,1.12,0,0,1,.82-.34,2.83,2.83,0,0,1,1.2.36,11.76,11.76,0,0,1,3.34-5.92A8,8,0,0,1,671.09,193.73Zm-1.52,9.84a8.73,8.73,0,0,0,4.32-.92,2.78,2.78,0,0,0,1.62-2.48,3.83,3.83,0,0,0-1.06-2.7,3.92,3.92,0,0,0-3-1.14,5.76,5.76,0,0,0-4.44,2,9.45,9.45,0,0,0-2.32,4.62A17.51,17.51,0,0,0,669.57,203.57Z"/><path d="M699,204.65a22.33,22.33,0,0,0,.44,4.9q.44,1.9,1,2.14a1.74,1.74,0,0,0,.58.16,1.38,1.38,0,0,1,.48.12.34.34,0,0,1,.14.32,2.62,2.62,0,0,1-.58,1.76,2.16,2.16,0,0,1-1.74.68q-1.16,0-1.8-1.48a9.63,9.63,0,0,1-.64-3.8,9.77,9.77,0,0,1-2.94,3.76,6.89,6.89,0,0,1-4.36,1.52,6,6,0,0,1-4.18-1.6q-3.2-2.92-3.2-8.36a12,12,0,0,1,2.52-7.6,7.85,7.85,0,0,1,6.48-3.24,7.39,7.39,0,0,1,5.2,2q0-2,1.52-2,1.84,0,1.84,2.82A54.44,54.44,0,0,1,699,204.65Zm-2.32.36-.2-6.16a7.2,7.2,0,0,0-5-2.32,5.6,5.6,0,0,0-4.5,2.36,8.8,8.8,0,0,0-1.88,5.66,10.87,10.87,0,0,0,1.22,5.44,3.8,3.8,0,0,0,3.46,2.14,5.46,5.46,0,0,0,4.08-2A13.55,13.55,0,0,0,696.67,205Z"/></svg>