
			<svg width="188" height="118" view-box="0 0 188 118" xmlns="http://www.w3.org/2000/svg">
				<defs>
					<filter
						x="-3.9%"
						y="-4.5%"
						width="107.8%"
						height="112.7%"
						filter-units="objectBoundingBox"
						id="a"
					>
						<feOffset
							dy="2"
							in="SourceAlpha"
							result="shadowOffsetOuter1"
						/>
						<feGaussianBlur
							std-deviation="2"
							in="shadowOffsetOuter1"
							result="shadowBlurOuter1"
						/>
						<feColorMatrix
							values="0 0 0 0 0 0 0 0 0 0 0 0 0 0 0 0 0 0 0.135699728 0"
							in="shadowBlurOuter1"
						/>
					</filter>
					<path d="M18.844.04v24.92H0V.04h18.844H0v24.92h18.844V.04z" />
					<path
						d="M7.347 21.19c-.074-.09-1.836-2.278-3.63-4.986C1.252 12.476 0 9.682 0 7.898 0 3.543 3.59 0 8 0s8 3.543 8 7.898c0 1.784-1.25 4.578-3.718 8.306-1.793 2.708-3.555 4.896-3.63 4.987L8 22l-.653-.81z"
						id="g"
					/>
				</defs>
				<g fill="none" fill-rule="evenodd">
					<g transform="translate(4 2)">
						<path
							d="M0 0h180v110H0z"
							fill="#000"
							filter="url(#a)"
						/>
						<path d="M0 0h180v110H0z" fill="#FFF" />
					</g>
					<g transform="translate(29 27)">
						<mask id="d" fill="#fff">
							<path id="c" d="M0 0h130v60H0z" />
						</mask>
						<path
							id="c"
							d="M0 0h130v60H0z"
							fill-opacity="0"
							fill="#9E9E9E"
						/>
						<g mask="url(#d)">
							<path
								fill="#D2D8DE"
								d="M-.396 55.102v14.514h31.664L8.226 46.423M30.538 60.356l8.706 9.03H73.05L47.813 42.967"
							/>
							<path
								fill="#919DA9"
								d="M12.46 42.16l13.844 13.933L43.58 38.705 29.735 24.77"
							/>
							<path
								fill="#D2D8DE"
								d="M36.06-16.92l9.368 9.432 26.165-26.338-71.99.027v80.377L25.502 20.51l-6.617-6.663 4.235-4.263L35.59 22.14l15.4-15.503-19.166-19.293M112.832 69.385L55.225 10.9l-15.4 15.502 42.37 42.983M115.877-33.803l-32.145-.017 16.08 16.186M130.366-33.796l-6.025-.003L87.873 2.91l5.882 5.922-4.706 4.736-5.882-5.92-11.35 11.425 9.545 9.61c.003 0 4.437 4.464 13.304 13.39l6.976-7.022 4.234 4.263-6.975 7.022 23.176 23.33 8.29.005V-33.796z"
							/>
							<path
								fill="#D2D8DE"
								d="M57.34 4.504h.002l.002.003L67.58 14.81l27.997-28.18L77.66-31.408 49.66-3.227"
							/>
						</g>
					</g>
					<g transform="translate(44 42)">
						<mask id="f" fill="#fff">
							<path d="M18.844.04v24.92H0V.04h18.844H0v24.92h18.844V.04z" />
						</mask>
						<path
							d="M9.422.04C4.227.04 0 4.08 0 9.044c0 2.037 1.344 4.992 4.11 9.037 1.935 2.827 3.84 5.115 3.92 5.21l1.392 1.67 1.393-1.67c.08-.095 1.985-2.383 3.92-5.21 2.765-4.045 4.11-7 4.11-9.037C18.844 4.08 14.616.04 9.42.04m0 1.703c4.22 0 7.64 3.268 7.64 7.3S9.423 22.23 9.423 22.23s-7.64-9.155-7.64-13.187 3.42-7.3 7.64-7.3"
							fill="#FFF"
							mask="url(#f)"
						/>
					</g>
					<g transform="translate(47 37)">
						<path
							fill="#717F8E"
							d="M7.347 21.19c-.074-.09-1.836-2.278-3.63-4.986C1.252 12.476 0 9.682 0 7.898 0 3.543 3.59 0 8 0s8 3.543 8 7.898c0 1.784-1.25 4.578-3.718 8.306-1.793 2.708-3.555 4.896-3.63 4.987L8 22l-.653-.81z"
							id="g"
						/>
						<path
							stroke="#FFF"
							stroke-width="4"
							d="M8.903 19.935zM5.79 22.448c-.27-.336-.685-.867-1.212-1.568-.858-1.142-1.717-2.348-2.527-3.572C-.62 13.27-2 10.19-2 7.898-2 2.433 2.49-2 8-2s10 4.433 10 9.898c0 2.293-1.38 5.373-4.05 9.41-.81 1.224-1.67 2.43-2.528 3.572-.528.702-.96 1.254-1.213 1.568L8 25.183l-2.21-2.735z"
						/>
					</g>
					<path
						d="M55 48c-1.654 0-3-1.346-3-3s1.346-3 3-3 3 1.346 3 3-1.346 3-3 3"
						fill="#FFF"
					/>
				</g>
			</svg>
