<svg id="Logo_big" data-name="Logo big" xmlns="http://www.w3.org/2000/svg" width="91.8" height="83.727" viewBox="0 0 91.8 83.727">
  <g id="MeetWay-Concept_newLogo-04" transform="translate(-8.36 2.444)">
    <path id="Path_105" data-name="Path 105" d="M77.47,14.36H68.26l-14,36.77-14-36.77H31.04L8.36,73.94h8.86L35.65,25.53,49.83,62.77l4.25,11.17h.35l4.26-11.17L72.87,25.53,91.3,73.94h8.86Z" fill="#fff"/>
    <g id="Group_128" data-name="Group 128" opacity="0.7">
      <path id="Path_106" data-name="Path 106" d="M50.87,36.61l3.39-8.9,3.39,8.9,4.43-11.64-3.39-8.9L54.43,4.9h-.35L49.83,16.07l-3.39,8.9Z" fill="#fff"/>
      <path id="Path_107" data-name="Path 107" d="M88.08,36.61,100.16,4.9H91.3L83.65,24.97Z" fill="#fff"/>
      <path id="Path_108" data-name="Path 108" d="M24.86,24.97,17.22,4.9H8.36L20.43,36.61Z" fill="#fff"/>
      <path id="Path_109" data-name="Path 109" d="M77.08,42.23,72.87,53.3,68.65,42.23,64.22,53.86l4.04,10.62h9.21l4.04-10.62Z" fill="#fff"/>
      <path id="Path_110" data-name="Path 110" d="M39.87,42.23,35.65,53.3,31.43,42.23,27,53.86l4.04,10.62h9.22L44.3,53.86Z" fill="#fff"/>
    </g>
  </g>
</svg>
